solid OpenSCAD_Model
  facet normal 2.63347e-008 4.17085e-009 -1
    outer loop
      vertex 18.7692 152.71 -0.0999985
      vertex 20.5 152.5 -0.0999985
      vertex 18.7825 152.626 -0.0999985
    endloop
  endfacet
  facet normal 2.63347e-008 4.17105e-009 -1
    outer loop
      vertex 20.5 152.5 -0.0999985
      vertex 18.7692 152.71 -0.0999985
      vertex 20.3532 153.427 -0.0999985
    endloop
  endfacet
  facet normal 2.29326e-008 1.16849e-008 -1
    outer loop
      vertex 18.5349 153.17 -0.0999985
      vertex 20.3532 153.427 -0.0999985
      vertex 18.7692 152.71 -0.0999985
    endloop
  endfacet
  facet normal 2.40681e-008 3.65732e-009 -1
    outer loop
      vertex 18.1698 153.535 -0.0999985
      vertex 20.3532 153.427 -0.0999985
      vertex 18.5349 153.17 -0.0999985
    endloop
  endfacet
  facet normal 2.64851e-008 5.25939e-008 -1
    outer loop
      vertex 20.3532 153.427 -0.0999985
      vertex 18.1698 153.535 -0.0999985
      vertex 18.1685 153.536 -0.0999985
    endloop
  endfacet
  facet normal 2.62316e-008 3.28591e-008 -1
    outer loop
      vertex 16.2302 153.535 -0.0999986
      vertex -18.427 155.353 -0.0999994
      vertex 16.4035 153.623 -0.0999986
    endloop
  endfacet
  facet normal 2.43034e-008 -3.89262e-009 -1
    outer loop
      vertex 15.8651 153.17 -0.0999986
      vertex -18.427 155.353 -0.0999994
      vertex 16.2302 153.535 -0.0999986
    endloop
  endfacet
  facet normal 2.52235e-008 1.05592e-008 -1
    outer loop
      vertex -18.427 155.353 -0.0999994
      vertex 15.8651 153.17 -0.0999986
      vertex 15.703 152.852 -0.0999986
    endloop
  endfacet
  facet normal 0 -1 0
    outer loop
      vertex -17.5 -5.5 -0.0999985
      vertex 17.5 -5.5 2
      vertex -17.5 -5.5 2
    endloop
  endfacet
  facet normal 0 -1 -0
    outer loop
      vertex 17.5 -5.5 2
      vertex -17.5 -5.5 -0.0999985
      vertex 17.5 -5.5 -0.0999985
    endloop
  endfacet
  facet normal -0.156434 -0.987688 0
    outer loop
      vertex -18.4271 -5.35317 2
      vertex -17.5 -5.5 -0.0999985
      vertex -17.5 -5.5 2
    endloop
  endfacet
  facet normal -0.156434 -0.987688 0
    outer loop
      vertex -17.5 -5.5 -0.0999985
      vertex -18.4271 -5.35317 2
      vertex -18.4271 -5.35317 -0.0999994
    endloop
  endfacet
  facet normal 0 0 -1
    outer loop
      vertex -19.2634 -4.92705 -0.0999994
      vertex -18.427 -3.27767 -0.0999994
      vertex -18.4271 -5.35317 -0.0999994
    endloop
  endfacet
  facet normal 0 0 -1
    outer loop
      vertex -19.9271 -4.26336 -0.0999994
      vertex -18.427 -3.27767 -0.0999994
      vertex -19.2634 -4.92705 -0.0999994
    endloop
  endfacet
  facet normal -0 0 -1
    outer loop
      vertex -18.427 -3.27767 -0.0999994
      vertex -19.9271 -4.26336 -0.0999994
      vertex -18.5349 -3.16985 -0.0999994
    endloop
  endfacet
  facet normal -0 0 -1
    outer loop
      vertex -18.5349 -3.16985 -0.0999994
      vertex -20.3532 -3.42705 -0.0999994
      vertex -18.7692 -2.70988 -0.0999994
    endloop
  endfacet
  facet normal 0 0 -1
    outer loop
      vertex -20.3532 -3.42705 -0.0999994
      vertex -18.5349 -3.16985 -0.0999994
      vertex -19.9271 -4.26336 -0.0999994
    endloop
  endfacet
  facet normal 0 0 -1
    outer loop
      vertex -18.5349 -1.23015 -0.0999994
      vertex -18.427 151.122 -0.0999994
      vertex -18.427 -1.12233 -0.0999994
    endloop
  endfacet
  facet normal 0 0 -1
    outer loop
      vertex -18.5349 -1.23015 -0.0999994
      vertex -18.5349 151.23 -0.0999994
      vertex -18.427 151.122 -0.0999994
    endloop
  endfacet
  facet normal 0 0 -1
    outer loop
      vertex -18.7692 -1.69012 -0.0999994
      vertex -18.5349 151.23 -0.0999994
      vertex -18.5349 -1.23015 -0.0999994
    endloop
  endfacet
  facet normal 0 0 -1
    outer loop
      vertex -18.7692 -1.69012 -0.0999994
      vertex -18.7692 151.69 -0.0999994
      vertex -18.5349 151.23 -0.0999994
    endloop
  endfacet
  facet normal 0 0 -1
    outer loop
      vertex -18.85 -2.2 -0.0999994
      vertex -18.7692 151.69 -0.0999994
      vertex -18.7692 -1.69012 -0.0999994
    endloop
  endfacet
  facet normal -0 0 -1
    outer loop
      vertex -18.7692 151.69 -0.0999994
      vertex -18.85 -2.2 -0.0999994
      vertex -18.85 152.2 -0.0999994
    endloop
  endfacet
  facet normal 0 0 -1
    outer loop
      vertex -19.927 154.263 -0.0999994
      vertex -18.427 153.278 -0.0999994
      vertex -18.5349 153.17 -0.0999994
    endloop
  endfacet
  facet normal 0 0 -1
    outer loop
      vertex -20.3532 153.427 -0.0999994
      vertex -18.5349 153.17 -0.0999994
      vertex -18.7692 152.71 -0.0999994
    endloop
  endfacet
  facet normal 0 0 -1
    outer loop
      vertex -20.5 152.5 -0.0999994
      vertex -18.7692 152.71 -0.0999994
      vertex -18.85 152.2 -0.0999994
    endloop
  endfacet
  facet normal 0 0 -1
    outer loop
      vertex -18.427 153.278 -0.0999994
      vertex -19.2634 154.927 -0.0999994
      vertex -18.427 155.353 -0.0999994
    endloop
  endfacet
  facet normal -0 0 -1
    outer loop
      vertex -18.85 -2.2 -0.0999994
      vertex -20.5 -2.5 -0.0999994
      vertex -18.85 152.2 -0.0999994
    endloop
  endfacet
  facet normal -0 0 -1
    outer loop
      vertex -18.7692 152.71 -0.0999994
      vertex -20.5 152.5 -0.0999994
      vertex -20.3532 153.427 -0.0999994
    endloop
  endfacet
  facet normal 0 0 -1
    outer loop
      vertex -20.5 -2.5 -0.0999994
      vertex -18.7692 -2.70988 -0.0999994
      vertex -20.3532 -3.42705 -0.0999994
    endloop
  endfacet
  facet normal 0 0 -1
    outer loop
      vertex -18.7692 -2.70988 -0.0999994
      vertex -20.5 -2.5 -0.0999994
      vertex -18.85 -2.2 -0.0999994
    endloop
  endfacet
  facet normal -0 0 -1
    outer loop
      vertex -18.85 152.2 -0.0999994
      vertex -20.5 -2.5 -0.0999994
      vertex -20.5 152.5 -0.0999994
    endloop
  endfacet
  facet normal 0 0 -1
    outer loop
      vertex -18.427 153.278 -0.0999994
      vertex -19.927 154.263 -0.0999994
      vertex -19.2634 154.927 -0.0999994
    endloop
  endfacet
  facet normal 0 0 -1
    outer loop
      vertex -18.5349 153.17 -0.0999994
      vertex -20.3532 153.427 -0.0999994
      vertex -19.927 154.263 -0.0999994
    endloop
  endfacet
  facet normal 2.5877e-008 -1.63381e-007 -1
    outer loop
      vertex 17.5 -5.5 -0.0999985
      vertex -18.4271 -5.35317 -0.0999994
      vertex 18.4271 -5.35317 -0.0999985
    endloop
  endfacet
  facet normal 2.5877e-008 5.07866e-008 -1
    outer loop
      vertex 19.2634 154.927 -0.0999985
      vertex -18.427 155.353 -0.0999994
      vertex 18.4271 155.353 -0.0999985
    endloop
  endfacet
  facet normal 0 -6.49507e-006 -1
    outer loop
      vertex -17.5 -5.5 -0.0999985
      vertex -18.4271 -5.35317 -0.0999994
      vertex 17.5 -5.5 -0.0999985
    endloop
  endfacet
  facet normal 0 0 1
    outer loop
      vertex 16.2302 150.865 2
      vertex -16.2302 150.865 2
      vertex 16.6901 150.631 2
    endloop
  endfacet
  facet normal 0 0 1
    outer loop
      vertex 16.6901 -0.630756 2
      vertex -15.6308 -1.69012 2
      vertex -15.55 -2.2 2
    endloop
  endfacet
  facet normal 0 0 1
    outer loop
      vertex -16.6901 150.631 2
      vertex 16.6901 150.631 2
      vertex -16.2302 150.865 2
    endloop
  endfacet
  facet normal 0 0 1
    outer loop
      vertex 16.6901 -0.630756 2
      vertex -15.8651 -1.23015 2
      vertex -15.6308 -1.69012 2
    endloop
  endfacet
  facet normal 0 0 1
    outer loop
      vertex 16.6901 150.631 2
      vertex -16.6901 150.631 2
      vertex 16.6901 -0.630756 2
    endloop
  endfacet
  facet normal 0 0 1
    outer loop
      vertex 16.6901 -0.630756 2
      vertex -16.2302 -0.865122 2
      vertex -15.8651 -1.23015 2
    endloop
  endfacet
  facet normal 0 0 1
    outer loop
      vertex -16.6901 -0.630756 2
      vertex 16.6901 -0.630756 2
      vertex -16.6901 150.631 2
    endloop
  endfacet
  facet normal 0 0 1
    outer loop
      vertex 16.6901 -0.630756 2
      vertex -16.6901 -0.630756 2
      vertex -16.2302 -0.865122 2
    endloop
  endfacet
  facet normal -0 0 1
    outer loop
      vertex -17.2 150.55 2
      vertex -16.6901 -0.630756 2
      vertex -16.6901 150.631 2
    endloop
  endfacet
  facet normal 0 0 1
    outer loop
      vertex -17.2 150.55 2
      vertex -17.2 -0.549999 2
      vertex -16.6901 -0.630756 2
    endloop
  endfacet
  facet normal 0 0 1
    outer loop
      vertex -17.7099 150.631 2
      vertex -17.2 -0.549999 2
      vertex -17.2 150.55 2
    endloop
  endfacet
  facet normal 0 0 1
    outer loop
      vertex -17.7099 150.631 2
      vertex -17.7099 -0.630756 2
      vertex -17.2 -0.549999 2
    endloop
  endfacet
  facet normal 0 0 1
    outer loop
      vertex -18.1698 150.865 2
      vertex -17.7099 -0.630756 2
      vertex -17.7099 150.631 2
    endloop
  endfacet
  facet normal 0 0 1
    outer loop
      vertex -18.1698 150.865 2
      vertex -18.1698 -0.865122 2
      vertex -17.7099 -0.630756 2
    endloop
  endfacet
  facet normal 0 0 1
    outer loop
      vertex -20.5 152.5 2
      vertex -18.1698 150.865 2
      vertex -18.5349 151.23 2
    endloop
  endfacet
  facet normal 0 0 1
    outer loop
      vertex -18.1698 150.865 2
      vertex -20.5 152.5 2
      vertex -18.1698 -0.865122 2
    endloop
  endfacet
  facet normal 0 0 1
    outer loop
      vertex -20.5 152.5 2
      vertex -18.5349 151.23 2
      vertex -18.7692 151.69 2
    endloop
  endfacet
  facet normal 0 0 1
    outer loop
      vertex -20.5 -2.5 2
      vertex -18.1698 -0.865122 2
      vertex -20.5 152.5 2
    endloop
  endfacet
  facet normal 0 0 1
    outer loop
      vertex -20.5 152.5 2
      vertex -18.7692 151.69 2
      vertex -18.85 152.2 2
    endloop
  endfacet
  facet normal 0 0 1
    outer loop
      vertex -18.1698 -0.865122 2
      vertex -20.5 -2.5 2
      vertex -18.5349 -1.23015 2
    endloop
  endfacet
  facet normal 0 0 1
    outer loop
      vertex 18.1698 150.865 2
      vertex 20.5 152.5 2
      vertex 18.5349 151.23 2
    endloop
  endfacet
  facet normal 0 0 1
    outer loop
      vertex 20.5 -2.5 2
      vertex 18.7692 -1.69012 2
      vertex 18.85 -2.2 2
    endloop
  endfacet
  facet normal 0 0 1
    outer loop
      vertex 20.5 152.5 2
      vertex 18.1698 150.865 2
      vertex 20.5 -2.5 2
    endloop
  endfacet
  facet normal 0 0 1
    outer loop
      vertex 20.5 -2.5 2
      vertex 18.5349 -1.23015 2
      vertex 18.7692 -1.69012 2
    endloop
  endfacet
  facet normal -0 0 1
    outer loop
      vertex 18.1698 -0.865122 2
      vertex 20.5 -2.5 2
      vertex 18.1698 150.865 2
    endloop
  endfacet
  facet normal 0 0 1
    outer loop
      vertex 20.5 -2.5 2
      vertex 18.1698 -0.865122 2
      vertex 18.5349 -1.23015 2
    endloop
  endfacet
  facet normal -0 0 1
    outer loop
      vertex 17.7099 150.631 2
      vertex 18.1698 -0.865122 2
      vertex 18.1698 150.865 2
    endloop
  endfacet
  facet normal 0 0 1
    outer loop
      vertex 17.7099 150.631 2
      vertex 17.7099 -0.630756 2
      vertex 18.1698 -0.865122 2
    endloop
  endfacet
  facet normal -0 0 1
    outer loop
      vertex 17.2 150.55 2
      vertex 17.7099 -0.630756 2
      vertex 17.7099 150.631 2
    endloop
  endfacet
  facet normal 0 0 1
    outer loop
      vertex 17.2 150.55 2
      vertex 17.2 -0.549999 2
      vertex 17.7099 -0.630756 2
    endloop
  endfacet
  facet normal 0 0 1
    outer loop
      vertex 16.6901 150.631 2
      vertex 17.2 -0.549999 2
      vertex 17.2 150.55 2
    endloop
  endfacet
  facet normal 0 0 1
    outer loop
      vertex 16.6901 150.631 2
      vertex 16.6901 -0.630756 2
      vertex 17.2 -0.549999 2
    endloop
  endfacet
  facet normal 0 0 1
    outer loop
      vertex -15.8651 151.23 2
      vertex 15.8651 151.23 2
      vertex -15.6308 151.69 2
    endloop
  endfacet
  facet normal 0 0 1
    outer loop
      vertex 15.8651 151.23 2
      vertex -15.8651 151.23 2
      vertex 16.2302 150.865 2
    endloop
  endfacet
  facet normal 0 0 1
    outer loop
      vertex 15.6308 151.69 2
      vertex -15.6308 151.69 2
      vertex 15.8651 151.23 2
    endloop
  endfacet
  facet normal 0 0 1
    outer loop
      vertex -16.2302 150.865 2
      vertex 16.2302 150.865 2
      vertex -15.8651 151.23 2
    endloop
  endfacet
  facet normal 0 0 1
    outer loop
      vertex -15.6308 151.69 2
      vertex 15.6308 151.69 2
      vertex -15.55 152.2 2
    endloop
  endfacet
  facet normal 0 0 1
    outer loop
      vertex 16.6901 -0.630756 2
      vertex -15.55 -2.2 2
      vertex 16.2302 -0.865122 2
    endloop
  endfacet
  facet normal -0 0 1
    outer loop
      vertex -15.55 152.2 2
      vertex 15.6308 151.69 2
      vertex 15.55 152.2 2
    endloop
  endfacet
  facet normal 0 0 1
    outer loop
      vertex 16.2302 -0.865122 2
      vertex -15.55 -2.2 2
      vertex 15.8651 -1.23015 2
    endloop
  endfacet
  facet normal -0 0 1
    outer loop
      vertex 18.7692 152.71 2
      vertex 20.5 152.5 2
      vertex 20.3532 153.427 2
    endloop
  endfacet
  facet normal 0 0 1
    outer loop
      vertex 18.7692 151.69 2
      vertex 20.5 152.5 2
      vertex 18.85 152.2 2
    endloop
  endfacet
  facet normal 0 0 1
    outer loop
      vertex 18.5349 153.17 2
      vertex 20.3532 153.427 2
      vertex 19.9271 154.263 2
    endloop
  endfacet
  facet normal 0 0 1
    outer loop
      vertex 18.5349 151.23 2
      vertex 20.5 152.5 2
      vertex 18.7692 151.69 2
    endloop
  endfacet
  facet normal 0 0 1
    outer loop
      vertex 18.5349 153.17 2
      vertex 19.9271 154.263 2
      vertex 19.2634 154.927 2
    endloop
  endfacet
  facet normal 0 0 1
    outer loop
      vertex 18.7692 -2.70988 2
      vertex 20.5 -2.5 2
      vertex 18.85 -2.2 2
    endloop
  endfacet
  facet normal 0 0 1
    outer loop
      vertex 20.5 -2.5 2
      vertex 18.7692 -2.70988 2
      vertex 20.3532 -3.42705 2
    endloop
  endfacet
  facet normal 0 0 1
    outer loop
      vertex 20.5 152.5 2
      vertex 18.7692 152.71 2
      vertex 18.85 152.2 2
    endloop
  endfacet
  facet normal 0 0 1
    outer loop
      vertex 20.3532 153.427 2
      vertex 18.5349 153.17 2
      vertex 18.7692 152.71 2
    endloop
  endfacet
  facet normal 0 0 1
    outer loop
      vertex 18.1698 153.535 2
      vertex 19.2634 154.927 2
      vertex 18.4271 155.353 2
    endloop
  endfacet
  facet normal 0 0 1
    outer loop
      vertex 19.2634 154.927 2
      vertex 18.1698 153.535 2
      vertex 18.5349 153.17 2
    endloop
  endfacet
  facet normal 0 0 1
    outer loop
      vertex 18.4271 155.353 2
      vertex 17.7099 153.769 2
      vertex 18.1698 153.535 2
    endloop
  endfacet
  facet normal 0 0 1
    outer loop
      vertex 17.5 155.5 2
      vertex 17.7099 153.769 2
      vertex 18.4271 155.353 2
    endloop
  endfacet
  facet normal 0 0 1
    outer loop
      vertex 17.5 155.5 2
      vertex 17.2 153.85 2
      vertex 17.7099 153.769 2
    endloop
  endfacet
  facet normal 0 0 1
    outer loop
      vertex 17.5 155.5 2
      vertex 16.6901 153.769 2
      vertex 17.2 153.85 2
    endloop
  endfacet
  facet normal 0 0 1
    outer loop
      vertex 17.5 155.5 2
      vertex 16.2302 153.535 2
      vertex 16.6901 153.769 2
    endloop
  endfacet
  facet normal 0 0 1
    outer loop
      vertex 17.5 155.5 2
      vertex 15.8651 153.17 2
      vertex 16.2302 153.535 2
    endloop
  endfacet
  facet normal 0 0 1
    outer loop
      vertex 15.8651 -1.23015 2
      vertex -15.55 -2.2 2
      vertex 15.6308 -1.69012 2
    endloop
  endfacet
  facet normal 0 0 1
    outer loop
      vertex 15.6308 152.71 2
      vertex -15.55 152.2 2
      vertex 15.55 152.2 2
    endloop
  endfacet
  facet normal 0 0 1
    outer loop
      vertex -15.6308 152.71 2
      vertex 15.6308 152.71 2
      vertex 15.8651 153.17 2
    endloop
  endfacet
  facet normal 0 0 1
    outer loop
      vertex -15.8651 153.17 2
      vertex 15.8651 153.17 2
      vertex 17.5 155.5 2
    endloop
  endfacet
  facet normal 0 0 1
    outer loop
      vertex 15.6308 152.71 2
      vertex -15.6308 152.71 2
      vertex -15.55 152.2 2
    endloop
  endfacet
  facet normal 0 0 1
    outer loop
      vertex 15.8651 153.17 2
      vertex -15.8651 153.17 2
      vertex -15.6308 152.71 2
    endloop
  endfacet
  facet normal -0 0 1
    outer loop
      vertex -17.5 155.5 2
      vertex -15.8651 153.17 2
      vertex 17.5 155.5 2
    endloop
  endfacet
  facet normal 0 0 1
    outer loop
      vertex -15.8651 153.17 2
      vertex -17.5 155.5 2
      vertex -16.2302 153.535 2
    endloop
  endfacet
  facet normal 0 0 1
    outer loop
      vertex -16.2302 153.535 2
      vertex -17.5 155.5 2
      vertex -16.6901 153.769 2
    endloop
  endfacet
  facet normal 0 0 1
    outer loop
      vertex -16.6901 153.769 2
      vertex -17.5 155.5 2
      vertex -17.2 153.85 2
    endloop
  endfacet
  facet normal 0 0 1
    outer loop
      vertex -17.5 155.5 2
      vertex -17.7099 153.769 2
      vertex -17.2 153.85 2
    endloop
  endfacet
  facet normal -0 0 1
    outer loop
      vertex -18.427 155.353 2
      vertex -17.7099 153.769 2
      vertex -17.5 155.5 2
    endloop
  endfacet
  facet normal 0 0 1
    outer loop
      vertex -17.7099 153.769 2
      vertex -18.427 155.353 2
      vertex -18.1698 153.535 2
    endloop
  endfacet
  facet normal -0 0 1
    outer loop
      vertex -19.2634 154.927 2
      vertex -18.1698 153.535 2
      vertex -18.427 155.353 2
    endloop
  endfacet
  facet normal 0 0 1
    outer loop
      vertex -18.1698 153.535 2
      vertex -19.2634 154.927 2
      vertex -18.5349 153.17 2
    endloop
  endfacet
  facet normal -0 0 1
    outer loop
      vertex -19.927 154.263 2
      vertex -18.5349 153.17 2
      vertex -19.2634 154.927 2
    endloop
  endfacet
  facet normal 0 0 1
    outer loop
      vertex -18.5349 153.17 2
      vertex -20.3532 153.427 2
      vertex -18.7692 152.71 2
    endloop
  endfacet
  facet normal -0 0 1
    outer loop
      vertex -20.3532 153.427 2
      vertex -18.5349 153.17 2
      vertex -19.927 154.263 2
    endloop
  endfacet
  facet normal -0 0 1
    outer loop
      vertex 18.5349 -3.16985 2
      vertex 20.3532 -3.42705 2
      vertex 18.7692 -2.70988 2
    endloop
  endfacet
  facet normal 0 0 1
    outer loop
      vertex 20.3532 -3.42705 2
      vertex 18.5349 -3.16985 2
      vertex 19.9271 -4.26336 2
    endloop
  endfacet
  facet normal 0 0 1
    outer loop
      vertex 19.9271 -4.26336 2
      vertex 18.5349 -3.16985 2
      vertex 19.2634 -4.92705 2
    endloop
  endfacet
  facet normal -0 0 1
    outer loop
      vertex 18.1698 -3.53488 2
      vertex 19.2634 -4.92705 2
      vertex 18.5349 -3.16985 2
    endloop
  endfacet
  facet normal 0 0 1
    outer loop
      vertex 19.2634 -4.92705 2
      vertex 18.1698 -3.53488 2
      vertex 18.4271 -5.35317 2
    endloop
  endfacet
  facet normal -0 0 1
    outer loop
      vertex 17.7099 -3.76924 2
      vertex 18.4271 -5.35317 2
      vertex 18.1698 -3.53488 2
    endloop
  endfacet
  facet normal 0 0 1
    outer loop
      vertex 17.7099 -3.76924 2
      vertex 17.5 -5.5 2
      vertex 18.4271 -5.35317 2
    endloop
  endfacet
  facet normal -0 0 1
    outer loop
      vertex 17.2 -3.85 2
      vertex 17.5 -5.5 2
      vertex 17.7099 -3.76924 2
    endloop
  endfacet
  facet normal 0 0 1
    outer loop
      vertex 16.6901 -3.76924 2
      vertex 17.5 -5.5 2
      vertex 17.2 -3.85 2
    endloop
  endfacet
  facet normal 0 0 1
    outer loop
      vertex 16.2302 -3.53488 2
      vertex 17.5 -5.5 2
      vertex 16.6901 -3.76924 2
    endloop
  endfacet
  facet normal 0 0 1
    outer loop
      vertex 15.8651 -3.16985 2
      vertex 17.5 -5.5 2
      vertex 16.2302 -3.53488 2
    endloop
  endfacet
  facet normal 0 0 1
    outer loop
      vertex 15.6308 -1.69012 2
      vertex -15.55 -2.2 2
      vertex 15.55 -2.2 2
    endloop
  endfacet
  facet normal 0 0 1
    outer loop
      vertex 15.55 -2.2 2
      vertex -15.55 -2.2 2
      vertex 15.6308 -2.70988 2
    endloop
  endfacet
  facet normal 0 0 1
    outer loop
      vertex -15.6308 -2.70988 2
      vertex 15.6308 -2.70988 2
      vertex -15.55 -2.2 2
    endloop
  endfacet
  facet normal 0 0 1
    outer loop
      vertex 15.6308 -2.70988 2
      vertex -15.6308 -2.70988 2
      vertex 15.8651 -3.16985 2
    endloop
  endfacet
  facet normal 0 0 1
    outer loop
      vertex -15.8651 -3.16985 2
      vertex 15.8651 -3.16985 2
      vertex -15.6308 -2.70988 2
    endloop
  endfacet
  facet normal 0 0 1
    outer loop
      vertex 15.8651 -3.16985 2
      vertex -15.8651 -3.16985 2
      vertex 17.5 -5.5 2
    endloop
  endfacet
  facet normal 0 0 1
    outer loop
      vertex -17.5 -5.5 2
      vertex -15.8651 -3.16985 2
      vertex -16.2302 -3.53488 2
    endloop
  endfacet
  facet normal 0 0 1
    outer loop
      vertex -17.5 -5.5 2
      vertex -16.2302 -3.53488 2
      vertex -16.6901 -3.76924 2
    endloop
  endfacet
  facet normal 0 0 1
    outer loop
      vertex -17.5 -5.5 2
      vertex -16.6901 -3.76924 2
      vertex -17.2 -3.85 2
    endloop
  endfacet
  facet normal 0 0 1
    outer loop
      vertex -15.8651 -3.16985 2
      vertex -17.5 -5.5 2
      vertex 17.5 -5.5 2
    endloop
  endfacet
  facet normal 0 0 1
    outer loop
      vertex -17.7099 -3.76924 2
      vertex -17.5 -5.5 2
      vertex -17.2 -3.85 2
    endloop
  endfacet
  facet normal 0 0 1
    outer loop
      vertex -18.4271 -5.35317 2
      vertex -17.7099 -3.76924 2
      vertex -18.1698 -3.53488 2
    endloop
  endfacet
  facet normal 0 0 1
    outer loop
      vertex -17.7099 -3.76924 2
      vertex -18.4271 -5.35317 2
      vertex -17.5 -5.5 2
    endloop
  endfacet
  facet normal 0 0 1
    outer loop
      vertex -19.2634 -4.92705 2
      vertex -18.1698 -3.53488 2
      vertex -18.5349 -3.16985 2
    endloop
  endfacet
  facet normal 0 0 1
    outer loop
      vertex -20.3532 -3.42705 2
      vertex -18.5349 -3.16985 2
      vertex -18.7692 -2.70988 2
    endloop
  endfacet
  facet normal -0 0 1
    outer loop
      vertex -20.5 -2.5 2
      vertex -18.7692 -2.70988 2
      vertex -18.85 -2.2 2
    endloop
  endfacet
  facet normal 0 0 1
    outer loop
      vertex -18.1698 -3.53488 2
      vertex -19.2634 -4.92705 2
      vertex -18.4271 -5.35317 2
    endloop
  endfacet
  facet normal 0 0 1
    outer loop
      vertex -18.5349 -1.23015 2
      vertex -20.5 -2.5 2
      vertex -18.7692 -1.69012 2
    endloop
  endfacet
  facet normal 0 0 1
    outer loop
      vertex -20.5 152.5 2
      vertex -18.7692 152.71 2
      vertex -20.3532 153.427 2
    endloop
  endfacet
  facet normal 0 0 1
    outer loop
      vertex -18.7692 -1.69012 2
      vertex -20.5 -2.5 2
      vertex -18.85 -2.2 2
    endloop
  endfacet
  facet normal 0 0 1
    outer loop
      vertex -18.7692 152.71 2
      vertex -20.5 152.5 2
      vertex -18.85 152.2 2
    endloop
  endfacet
  facet normal 0 0 1
    outer loop
      vertex -18.7692 -2.70988 2
      vertex -20.5 -2.5 2
      vertex -20.3532 -3.42705 2
    endloop
  endfacet
  facet normal 0 0 1
    outer loop
      vertex -18.5349 -3.16985 2
      vertex -19.9271 -4.26336 2
      vertex -19.2634 -4.92705 2
    endloop
  endfacet
  facet normal 0 0 1
    outer loop
      vertex -18.5349 -3.16985 2
      vertex -20.3532 -3.42705 2
      vertex -19.9271 -4.26336 2
    endloop
  endfacet
  facet normal 0 1 -0
    outer loop
      vertex 17.5 155.5 -0.0999985
      vertex -17.5 155.5 2
      vertex 17.5 155.5 2
    endloop
  endfacet
  facet normal 0 1 0
    outer loop
      vertex -17.5 155.5 2
      vertex 17.5 155.5 -0.0999985
      vertex -17.5 155.5 -0.0999985
    endloop
  endfacet
  facet normal 1 -0 0
    outer loop
      vertex 20.5 -2.5 2
      vertex 20.5 152.5 -0.0999985
      vertex 20.5 152.5 2
    endloop
  endfacet
  facet normal 1 0 0
    outer loop
      vertex 20.5 152.5 -0.0999985
      vertex 20.5 -2.5 2
      vertex 20.5 -2.5 -0.0999985
    endloop
  endfacet
  facet normal 2.55922e-008 -2.55922e-008 -1
    outer loop
      vertex 19.2634 -4.92705 -0.0999985
      vertex -18.4271 -5.35317 -0.0999994
      vertex 19.9271 -4.26336 -0.0999985
    endloop
  endfacet
  facet normal 2.5877e-008 -5.07864e-008 -1
    outer loop
      vertex 18.4271 -5.35317 -0.0999985
      vertex -18.4271 -5.35317 -0.0999994
      vertex 19.2634 -4.92705 -0.0999985
    endloop
  endfacet
  facet normal 0.156434 -0.987688 0
    outer loop
      vertex 17.5 -5.5 -0.0999985
      vertex 18.4271 -5.35317 2
      vertex 17.5 -5.5 2
    endloop
  endfacet
  facet normal 0.156434 -0.987688 0
    outer loop
      vertex 18.4271 -5.35317 2
      vertex 17.5 -5.5 -0.0999985
      vertex 18.4271 -5.35317 -0.0999985
    endloop
  endfacet
  facet normal -0.707106 -0.707107 0
    outer loop
      vertex -19.9271 -4.26336 -0.0999994
      vertex -19.2634 -4.92705 2
      vertex -19.9271 -4.26336 2
    endloop
  endfacet
  facet normal -0.707106 -0.707107 -0
    outer loop
      vertex -19.2634 -4.92705 2
      vertex -19.9271 -4.26336 -0.0999994
      vertex -19.2634 -4.92705 -0.0999994
    endloop
  endfacet
  facet normal -0.891007 -0.453989 0
    outer loop
      vertex -19.9271 -4.26336 -0.0999994
      vertex -20.3532 -3.42705 2
      vertex -20.3532 -3.42705 -0.0999994
    endloop
  endfacet
  facet normal -0.891007 -0.453989 0
    outer loop
      vertex -20.3532 -3.42705 2
      vertex -19.9271 -4.26336 -0.0999994
      vertex -19.9271 -4.26336 2
    endloop
  endfacet
  facet normal 0.707106 -0.707107 0
    outer loop
      vertex 19.2634 -4.92705 -0.0999985
      vertex 19.9271 -4.26336 2
      vertex 19.2634 -4.92705 2
    endloop
  endfacet
  facet normal 0.707106 -0.707107 0
    outer loop
      vertex 19.9271 -4.26336 2
      vertex 19.2634 -4.92705 -0.0999985
      vertex 19.9271 -4.26336 -0.0999985
    endloop
  endfacet
  facet normal 2.52235e-008 -1.05594e-008 -1
    outer loop
      vertex 15.8651 -3.16985 -0.0999986
      vertex -18.4271 -5.35317 -0.0999994
      vertex 15.703 -2.8516 -0.0999986
    endloop
  endfacet
  facet normal 2.43034e-008 3.89266e-009 -1
    outer loop
      vertex 16.2302 -3.53488 -0.0999986
      vertex -18.4271 -5.35317 -0.0999994
      vertex 15.8651 -3.16985 -0.0999986
    endloop
  endfacet
  facet normal 2.62314e-008 -3.28563e-008 -1
    outer loop
      vertex -18.4271 -5.35317 -0.0999994
      vertex 16.2302 -3.53488 -0.0999986
      vertex 16.4035 -3.62322 -0.0999986
    endloop
  endfacet
  facet normal 2.63347e-008 -4.17103e-009 -1
    outer loop
      vertex 18.7692 -2.70988 -0.0999985
      vertex 20.5 -2.5 -0.0999985
      vertex 20.3532 -3.42705 -0.0999985
    endloop
  endfacet
  facet normal 2.63347e-008 -4.17099e-009 -1
    outer loop
      vertex 20.5 -2.5 -0.0999985
      vertex 18.7692 -2.70988 -0.0999985
      vertex 18.7825 -2.62588 -0.0999985
    endloop
  endfacet
  facet normal 2.29326e-008 -1.16847e-008 -1
    outer loop
      vertex 20.3532 -3.42705 -0.0999985
      vertex 18.5349 -3.16985 -0.0999985
      vertex 18.7692 -2.70988 -0.0999985
    endloop
  endfacet
  facet normal 2.40681e-008 -3.65735e-009 -1
    outer loop
      vertex 20.3532 -3.42705 -0.0999985
      vertex 18.1698 -3.53488 -0.0999985
      vertex 18.5349 -3.16985 -0.0999985
    endloop
  endfacet
  facet normal 2.64506e-008 -5.18988e-008 -1
    outer loop
      vertex 18.1698 -3.53488 -0.0999985
      vertex 20.3532 -3.42705 -0.0999985
      vertex 18.1685 -3.53556 -0.0999985
    endloop
  endfacet
  facet normal 0.987688 -0.156436 0
    outer loop
      vertex 20.3532 -3.42705 2
      vertex 20.5 -2.5 -0.0999985
      vertex 20.5 -2.5 2
    endloop
  endfacet
  facet normal 0.987688 -0.156436 0
    outer loop
      vertex 20.5 -2.5 -0.0999985
      vertex 20.3532 -3.42705 2
      vertex 20.3532 -3.42705 -0.0999985
    endloop
  endfacet
  facet normal 0.45399 0.891007 -0
    outer loop
      vertex 19.2634 154.927 -0.0999985
      vertex 18.4271 155.353 2
      vertex 19.2634 154.927 2
    endloop
  endfacet
  facet normal 0.45399 0.891007 0
    outer loop
      vertex 18.4271 155.353 2
      vertex 19.2634 154.927 -0.0999985
      vertex 18.4271 155.353 -0.0999985
    endloop
  endfacet
  facet normal 0.707107 0.707107 0
    outer loop
      vertex 19.9271 154.263 2
      vertex 19.2634 154.927 -0.0999985
      vertex 19.2634 154.927 2
    endloop
  endfacet
  facet normal 0.707107 0.707107 0
    outer loop
      vertex 19.2634 154.927 -0.0999985
      vertex 19.9271 154.263 2
      vertex 19.9271 154.263 -0.0999985
    endloop
  endfacet
  facet normal -0.453989 0.891007 0
    outer loop
      vertex -18.427 155.353 -0.0999994
      vertex -19.2634 154.927 2
      vertex -18.427 155.353 2
    endloop
  endfacet
  facet normal -0.453989 0.891007 0
    outer loop
      vertex -19.2634 154.927 2
      vertex -18.427 155.353 -0.0999994
      vertex -19.2634 154.927 -0.0999994
    endloop
  endfacet
  facet normal -0.987688 0.156436 0
    outer loop
      vertex -20.5 152.5 -0.0999994
      vertex -20.3532 153.427 2
      vertex -20.3532 153.427 -0.0999994
    endloop
  endfacet
  facet normal -0.987688 0.156436 0
    outer loop
      vertex -20.3532 153.427 2
      vertex -20.5 152.5 -0.0999994
      vertex -20.5 152.5 2
    endloop
  endfacet
  facet normal -0.987688 -0.156436 0
    outer loop
      vertex -20.3532 -3.42705 -0.0999994
      vertex -20.5 -2.5 2
      vertex -20.5 -2.5 -0.0999994
    endloop
  endfacet
  facet normal -0.987688 -0.156436 0
    outer loop
      vertex -20.5 -2.5 2
      vertex -20.3532 -3.42705 -0.0999994
      vertex -20.3532 -3.42705 2
    endloop
  endfacet
  facet normal -1 0 0
    outer loop
      vertex -20.5 -2.5 -0.0999994
      vertex -20.5 152.5 2
      vertex -20.5 152.5 -0.0999994
    endloop
  endfacet
  facet normal -1 -0 0
    outer loop
      vertex -20.5 152.5 2
      vertex -20.5 -2.5 -0.0999994
      vertex -20.5 -2.5 2
    endloop
  endfacet
  facet normal 2.5877e-008 1.63376e-007 -1
    outer loop
      vertex 18.4271 155.353 -0.0999985
      vertex -18.427 155.353 -0.0999994
      vertex 17.5 155.5 -0.0999985
    endloop
  endfacet
  facet normal 0 6.49486e-006 -1
    outer loop
      vertex 17.5 155.5 -0.0999985
      vertex -18.427 155.353 -0.0999994
      vertex -17.5 155.5 -0.0999985
    endloop
  endfacet
  facet normal -0.15644 0.987688 0
    outer loop
      vertex -17.5 155.5 -0.0999985
      vertex -18.427 155.353 2
      vertex -17.5 155.5 2
    endloop
  endfacet
  facet normal -0.15644 0.987688 0
    outer loop
      vertex -18.427 155.353 2
      vertex -17.5 155.5 -0.0999985
      vertex -18.427 155.353 -0.0999994
    endloop
  endfacet
  facet normal -0.453991 -0.891006 0
    outer loop
      vertex -19.2634 -4.92705 -0.0999994
      vertex -18.4271 -5.35317 2
      vertex -19.2634 -4.92705 2
    endloop
  endfacet
  facet normal -0.453991 -0.891006 -0
    outer loop
      vertex -18.4271 -5.35317 2
      vertex -19.2634 -4.92705 -0.0999994
      vertex -18.4271 -5.35317 -0.0999994
    endloop
  endfacet
  facet normal 2.44927e-008 -1.24796e-008 -1
    outer loop
      vertex 19.9271 -4.26336 -0.0999985
      vertex 18.1685 -3.53556 -0.0999985
      vertex 20.3532 -3.42705 -0.0999985
    endloop
  endfacet
  facet normal 2.36461e-008 -1.45253e-008 -1
    outer loop
      vertex 19.9271 -4.26336 -0.0999985
      vertex 17.7099 -3.76924 -0.0999985
      vertex 18.1685 -3.53556 -0.0999985
    endloop
  endfacet
  facet normal 2.82521e-008 6.14284e-009 -1
    outer loop
      vertex 19.9271 -4.26336 -0.0999985
      vertex 17.2 -3.85 -0.0999985
      vertex 17.7099 -3.76924 -0.0999985
    endloop
  endfacet
  facet normal 2.47237e-008 -2.50019e-009 -1
    outer loop
      vertex 16.6901 -3.76924 -0.0999986
      vertex -18.4271 -5.35317 -0.0999994
      vertex 16.4035 -3.62322 -0.0999986
    endloop
  endfacet
  facet normal 2.56337e-008 -2.26741e-008 -1
    outer loop
      vertex 17.2 -3.85 -0.0999985
      vertex -18.4271 -5.35317 -0.0999994
      vertex 16.6901 -3.76924 -0.0999986
    endloop
  endfacet
  facet normal 2.52527e-008 -1.36453e-008 -1
    outer loop
      vertex -18.4271 -5.35317 -0.0999994
      vertex 17.2 -3.85 -0.0999985
      vertex 19.9271 -4.26336 -0.0999985
    endloop
  endfacet
  facet normal 0.891007 -0.453989 0
    outer loop
      vertex 19.9271 -4.26336 2
      vertex 20.3532 -3.42705 -0.0999985
      vertex 20.3532 -3.42705 2
    endloop
  endfacet
  facet normal 0.891007 -0.453989 0
    outer loop
      vertex 20.3532 -3.42705 -0.0999985
      vertex 19.9271 -4.26336 2
      vertex 19.9271 -4.26336 -0.0999985
    endloop
  endfacet
  facet normal 0.987688 0.156436 0
    outer loop
      vertex 20.5 152.5 2
      vertex 20.3532 153.427 -0.0999985
      vertex 20.3532 153.427 2
    endloop
  endfacet
  facet normal 0.987688 0.156436 0
    outer loop
      vertex 20.3532 153.427 -0.0999985
      vertex 20.5 152.5 2
      vertex 20.5 152.5 -0.0999985
    endloop
  endfacet
  facet normal 0.156439 0.987688 -0
    outer loop
      vertex 18.4271 155.353 -0.0999985
      vertex 17.5 155.5 2
      vertex 18.4271 155.353 2
    endloop
  endfacet
  facet normal 0.156439 0.987688 0
    outer loop
      vertex 17.5 155.5 2
      vertex 18.4271 155.353 -0.0999985
      vertex 17.5 155.5 -0.0999985
    endloop
  endfacet
  facet normal -0.707108 0.707106 0
    outer loop
      vertex -19.927 154.263 -0.0999994
      vertex -19.2634 154.927 2
      vertex -19.2634 154.927 -0.0999994
    endloop
  endfacet
  facet normal -0.707108 0.707106 0
    outer loop
      vertex -19.2634 154.927 2
      vertex -19.927 154.263 -0.0999994
      vertex -19.927 154.263 2
    endloop
  endfacet
  facet normal -0.891006 0.453991 0
    outer loop
      vertex -20.3532 153.427 -0.0999994
      vertex -19.927 154.263 2
      vertex -19.927 154.263 -0.0999994
    endloop
  endfacet
  facet normal -0.891006 0.453991 0
    outer loop
      vertex -19.927 154.263 2
      vertex -20.3532 153.427 -0.0999994
      vertex -20.3532 153.427 2
    endloop
  endfacet
  facet normal 0.891007 0.45399 0
    outer loop
      vertex 20.3532 153.427 2
      vertex 19.9271 154.263 -0.0999985
      vertex 19.9271 154.263 2
    endloop
  endfacet
  facet normal 0.891007 0.45399 0
    outer loop
      vertex 19.9271 154.263 -0.0999985
      vertex 20.3532 153.427 2
      vertex 20.3532 153.427 -0.0999985
    endloop
  endfacet
  facet normal 1.94725e-009 -3.82214e-009 -1
    outer loop
      vertex -18.1698 153.535 -0.0999994
      vertex -18.427 155.353 -0.0999994
      vertex -18 153.621 -0.0999994
    endloop
  endfacet
  facet normal 2.89676e-008 0 -1
    outer loop
      vertex -18.427 155.353 -0.0999994
      vertex -18.1698 153.535 -0.0999994
      vertex -18.427 153.278 -0.0999994
    endloop
  endfacet
  facet normal 2.46756e-008 3.90824e-009 -1
    outer loop
      vertex 15.6308 -2.70988 -0.0999986
      vertex -15.55 -2.2 -0.0999994
      vertex 15.55 -2.2 -0.0999986
    endloop
  endfacet
  facet normal 2.45481e-008 1.25079e-008 -1
    outer loop
      vertex -15.6308 -2.70988 -0.0999994
      vertex 15.6308 -2.70988 -0.0999986
      vertex 15.703 -2.8516 -0.0999986
    endloop
  endfacet
  facet normal 2.45481e-008 -3.88805e-009 -1
    outer loop
      vertex 15.6308 -2.70988 -0.0999986
      vertex -15.6308 -2.70988 -0.0999994
      vertex -15.55 -2.2 -0.0999994
    endloop
  endfacet
  facet normal 2.45083e-008 3.71045e-009 -1
    outer loop
      vertex 15.703 -2.8516 -0.0999986
      vertex -15.8651 -3.16985 -0.0999994
      vertex -15.6308 -2.70988 -0.0999994
    endloop
  endfacet
  facet normal 2.45878e-008 -4.17705e-009 -1
    outer loop
      vertex 15.703 -2.8516 -0.0999986
      vertex -16.2302 -3.53488 -0.0999994
      vertex -15.8651 -3.16985 -0.0999994
    endloop
  endfacet
  facet normal 2.45185e-008 -9.40814e-010 -1
    outer loop
      vertex -18.4271 -5.35317 -0.0999994
      vertex -16.2302 -3.53488 -0.0999994
      vertex 15.703 -2.8516 -0.0999986
    endloop
  endfacet
  facet normal 4.11917e-009 2.37061e-008 -1
    outer loop
      vertex -16.2302 -3.53488 -0.0999994
      vertex -18.4271 -5.35317 -0.0999994
      vertex -16.6901 -3.76924 -0.0999994
    endloop
  endfacet
  facet normal 2.89676e-008 -2.66207e-014 -1
    outer loop
      vertex -18.1698 -3.53488 -0.0999994
      vertex -18.4271 -5.35317 -0.0999994
      vertex -18.427 -3.27767 -0.0999994
    endloop
  endfacet
  facet normal 1.70565e-008 1.68485e-009 -1
    outer loop
      vertex -17.7099 -3.76924 -0.0999994
      vertex -18.4271 -5.35317 -0.0999994
      vertex -18.1698 -3.53488 -0.0999994
    endloop
  endfacet
  facet normal 2.86598e-008 -3.56892e-009 -1
    outer loop
      vertex -17.2 -3.85 -0.0999994
      vertex -18.4271 -5.35317 -0.0999994
      vertex -17.7099 -3.76924 -0.0999994
    endloop
  endfacet
  facet normal 2.99579e-008 -4.6286e-009 -1
    outer loop
      vertex -16.6901 -3.76924 -0.0999994
      vertex -18.4271 -5.35317 -0.0999994
      vertex -17.2 -3.85 -0.0999994
    endloop
  endfacet
  facet normal 2.50373e-008 1.35291e-008 -1
    outer loop
      vertex 20.5 -2.5 -0.0999985
      vertex 18.7825 -2.62588 -0.0999985
      vertex 18.85 -2.2 -0.0999985
    endloop
  endfacet
  facet normal 2.05113e-008 -1.13639e-008 -1
    outer loop
      vertex 18.7692 -1.69012 -0.0999985
      vertex 20.5 -2.5 -0.0999985
      vertex 18.85 -2.2 -0.0999985
    endloop
  endfacet
  facet normal 3.3915e-008 1.72806e-008 -1
    outer loop
      vertex 18.5349 -1.23015 -0.0999985
      vertex 20.5 -2.5 -0.0999985
      vertex 18.7692 -1.69012 -0.0999985
    endloop
  endfacet
  facet normal -1.026e-008 -5.10815e-008 -1
    outer loop
      vertex 18.1698 -0.865122 -0.0999985
      vertex 20.5 -2.5 -0.0999985
      vertex 18.5349 -1.23015 -0.0999985
    endloop
  endfacet
  facet normal 2.46756e-008 -3.90824e-009 -1
    outer loop
      vertex -15.55 -2.2 -0.0999994
      vertex 15.6308 -1.69012 -0.0999986
      vertex 15.55 -2.2 -0.0999986
    endloop
  endfacet
  facet normal 2.45481e-008 3.88805e-009 -1
    outer loop
      vertex -15.6308 -1.69012 -0.0999994
      vertex 15.6308 -1.69012 -0.0999986
      vertex -15.55 -2.2 -0.0999994
    endloop
  endfacet
  facet normal 2.45481e-008 3.69017e-009 -1
    outer loop
      vertex 15.6308 -1.69012 -0.0999986
      vertex -15.6308 -1.69012 -0.0999994
      vertex 15.8651 -1.23015 -0.0999986
    endloop
  endfacet
  facet normal 2.46551e-008 -3.63566e-009 -1
    outer loop
      vertex -15.8651 -1.23015 -0.0999994
      vertex 15.8651 -1.23015 -0.0999986
      vertex -15.6308 -1.69012 -0.0999994
    endloop
  endfacet
  facet normal 2.46551e-008 -4.24431e-009 -1
    outer loop
      vertex 15.8651 -1.23015 -0.0999986
      vertex -15.8651 -1.23015 -0.0999994
      vertex 16.2302 -0.865122 -0.0999986
    endloop
  endfacet
  facet normal 2.45596e-008 4.14885e-009 -1
    outer loop
      vertex -16.2302 -0.865122 -0.0999994
      vertex 16.2302 -0.865122 -0.0999986
      vertex -15.8651 -1.23015 -0.0999994
    endloop
  endfacet
  facet normal 2.45596e-008 -1.64103e-008 -1
    outer loop
      vertex 16.2302 -0.865122 -0.0999986
      vertex -16.2302 -0.865122 -0.0999994
      vertex 16.6901 -0.630756 -0.0999986
    endloop
  endfacet
  facet normal 2.43292e-008 1.59581e-008 -1
    outer loop
      vertex -16.6901 -0.630756 -0.0999994
      vertex 16.6901 -0.630756 -0.0999986
      vertex -16.2302 -0.865122 -0.0999994
    endloop
  endfacet
  facet normal 2.43292e-008 -9.38125e-012 -1
    outer loop
      vertex -17.2443 150.557 -0.0999994
      vertex 16.6901 -0.630756 -0.0999986
      vertex -16.6901 -0.630756 -0.0999994
    endloop
  endfacet
  facet normal 2.92262e-008 8.56899e-012 -1
    outer loop
      vertex -17.2443 150.557 -0.0999994
      vertex -16.6901 -0.630756 -0.0999994
      vertex -17.2 -0.549999 -0.0999994
    endloop
  endfacet
  facet normal 2.58104e-008 3.28785e-010 -1
    outer loop
      vertex 18.1698 -0.865122 -0.0999985
      vertex -17.2443 150.557 -0.0999994
      vertex 20.5 -2.5 -0.0999985
    endloop
  endfacet
  facet normal 1.50878e-008 -2.17899e-009 -1
    outer loop
      vertex 17.7099 -0.630756 -0.0999985
      vertex -17.2443 150.557 -0.0999994
      vertex 18.1698 -0.865122 -0.0999985
    endloop
  endfacet
  facet normal 2.94042e-008 1.13093e-009 -1
    outer loop
      vertex 17.2 -0.549999 -0.0999986
      vertex -17.2443 150.557 -0.0999994
      vertex 17.7099 -0.630756 -0.0999985
    endloop
  endfacet
  facet normal 2.90582e-008 1.05206e-009 -1
    outer loop
      vertex 16.6901 -0.630756 -0.0999986
      vertex -17.2443 150.557 -0.0999994
      vertex 17.2 -0.549999 -0.0999986
    endloop
  endfacet
  facet normal 2.92237e-008 8.56826e-012 -1
    outer loop
      vertex -17.7099 -0.630756 -0.0999994
      vertex -17.2443 150.557 -0.0999994
      vertex -17.2 -0.549999 -0.0999994
    endloop
  endfacet
  facet normal 3.20061e-008 0 -1
    outer loop
      vertex -17.7099 -0.630756 -0.0999994
      vertex -17.7099 150.631 -0.0999994
      vertex -17.2443 150.557 -0.0999994
    endloop
  endfacet
  facet normal 1.6198e-008 0 -1
    outer loop
      vertex -18.1698 -0.865122 -0.0999994
      vertex -17.7099 150.631 -0.0999994
      vertex -17.7099 -0.630756 -0.0999994
    endloop
  endfacet
  facet normal 1.6198e-008 0 -1
    outer loop
      vertex -18.1698 -0.865122 -0.0999994
      vertex -18.1698 150.865 -0.0999994
      vertex -17.7099 150.631 -0.0999994
    endloop
  endfacet
  facet normal 2.89676e-008 0 -1
    outer loop
      vertex -18.427 -1.12233 -0.0999994
      vertex -18.1698 150.865 -0.0999994
      vertex -18.1698 -0.865122 -0.0999994
    endloop
  endfacet
  facet normal 2.89676e-008 0 -1
    outer loop
      vertex -18.1698 150.865 -0.0999994
      vertex -18.427 -1.12233 -0.0999994
      vertex -18.427 151.122 -0.0999994
    endloop
  endfacet
  facet normal 2.55797e-008 0 -1
    outer loop
      vertex 18.1698 150.865 -0.0999985
      vertex 20.5 152.5 -0.0999985
      vertex 20.5 -2.5 -0.0999985
    endloop
  endfacet
  facet normal 2.05113e-008 1.1364e-008 -1
    outer loop
      vertex 20.5 152.5 -0.0999985
      vertex 18.7692 151.69 -0.0999985
      vertex 18.85 152.2 -0.0999985
    endloop
  endfacet
  facet normal 3.39148e-008 -1.72801e-008 -1
    outer loop
      vertex 20.5 152.5 -0.0999985
      vertex 18.5349 151.23 -0.0999985
      vertex 18.7692 151.69 -0.0999985
    endloop
  endfacet
  facet normal -1.02633e-008 5.10864e-008 -1
    outer loop
      vertex 20.5 152.5 -0.0999985
      vertex 18.1698 150.865 -0.0999985
      vertex 18.5349 151.23 -0.0999985
    endloop
  endfacet
  facet normal 1.62701e-008 -1.41446e-010 -1
    outer loop
      vertex 20.5 -2.5 -0.0999985
      vertex 17.7099 150.631 -0.0999985
      vertex 18.1698 150.865 -0.0999985
    endloop
  endfacet
  facet normal 2.92101e-008 9.43285e-011 -1
    outer loop
      vertex 20.5 -2.5 -0.0999985
      vertex 17.2 150.55 -0.0999986
      vertex 17.7099 150.631 -0.0999985
    endloop
  endfacet
  facet normal 2.92399e-008 9.49702e-011 -1
    outer loop
      vertex 20.5 -2.5 -0.0999985
      vertex 16.6901 150.631 -0.0999986
      vertex 17.2 150.55 -0.0999986
    endloop
  endfacet
  facet normal 2.43292e-008 -2.7208e-011 -1
    outer loop
      vertex -16.6901 150.631 -0.0999994
      vertex 16.6901 150.631 -0.0999986
      vertex 20.5 -2.5 -0.0999985
    endloop
  endfacet
  facet normal 2.43292e-008 1.59574e-008 -1
    outer loop
      vertex 16.6901 150.631 -0.0999986
      vertex -16.6901 150.631 -0.0999994
      vertex 16.2302 150.865 -0.0999986
    endloop
  endfacet
  facet normal 2.45596e-008 -1.64097e-008 -1
    outer loop
      vertex -16.2302 150.865 -0.0999994
      vertex 16.2302 150.865 -0.0999986
      vertex -16.6901 150.631 -0.0999994
    endloop
  endfacet
  facet normal 2.45596e-008 4.14898e-009 -1
    outer loop
      vertex 16.2302 150.865 -0.0999986
      vertex -16.2302 150.865 -0.0999994
      vertex 15.8651 151.23 -0.0999986
    endloop
  endfacet
  facet normal 2.46551e-008 -4.24444e-009 -1
    outer loop
      vertex -15.8651 151.23 -0.0999994
      vertex 15.8651 151.23 -0.0999986
      vertex -16.2302 150.865 -0.0999994
    endloop
  endfacet
  facet normal 2.46756e-008 -3.90829e-009 -1
    outer loop
      vertex 15.55 152.2 -0.0999986
      vertex -15.6308 151.69 -0.0999994
      vertex -15.55 152.2 -0.0999994
    endloop
  endfacet
  facet normal 2.45481e-008 3.88809e-009 -1
    outer loop
      vertex 15.6308 151.69 -0.0999986
      vertex -15.6308 151.69 -0.0999994
      vertex 15.55 152.2 -0.0999986
    endloop
  endfacet
  facet normal 2.45481e-008 3.69011e-009 -1
    outer loop
      vertex -15.6308 151.69 -0.0999994
      vertex 15.6308 151.69 -0.0999986
      vertex -15.8651 151.23 -0.0999994
    endloop
  endfacet
  facet normal 2.46551e-008 -3.63559e-009 -1
    outer loop
      vertex 15.8651 151.23 -0.0999986
      vertex -15.8651 151.23 -0.0999994
      vertex 15.6308 151.69 -0.0999986
    endloop
  endfacet
  facet normal 2.90477e-008 1.11875e-009 -1
    outer loop
      vertex 20.5 -2.5 -0.0999985
      vertex -17.2 150.55 -0.0999994
      vertex -16.6901 150.631 -0.0999994
    endloop
  endfacet
  facet normal -9.95182e-010 -6.28154e-009 -1
    outer loop
      vertex -17.2 150.55 -0.0999994
      vertex 20.5 -2.5 -0.0999985
      vertex -17.2443 150.557 -0.0999994
    endloop
  endfacet
  facet normal 2.50373e-008 -1.35289e-008 -1
    outer loop
      vertex 20.5 152.5 -0.0999985
      vertex 18.85 152.2 -0.0999985
      vertex 18.7825 152.626 -0.0999985
    endloop
  endfacet
  facet normal 2.46756e-008 -3.90817e-009 -1
    outer loop
      vertex -15.55 152.2 -0.0999994
      vertex 15.6308 152.71 -0.0999986
      vertex 15.55 152.2 -0.0999986
    endloop
  endfacet
  facet normal 2.45481e-008 3.88798e-009 -1
    outer loop
      vertex -15.6308 152.71 -0.0999994
      vertex 15.6308 152.71 -0.0999986
      vertex -15.55 152.2 -0.0999994
    endloop
  endfacet
  facet normal 2.45481e-008 -1.25091e-008 -1
    outer loop
      vertex 15.6308 152.71 -0.0999986
      vertex -15.6308 152.71 -0.0999994
      vertex 15.703 152.852 -0.0999986
    endloop
  endfacet
  facet normal 2.45083e-008 -3.7105e-009 -1
    outer loop
      vertex -15.8651 153.17 -0.0999994
      vertex 15.703 152.852 -0.0999986
      vertex -15.6308 152.71 -0.0999994
    endloop
  endfacet
  facet normal 2.45878e-008 4.177e-009 -1
    outer loop
      vertex -16.2302 153.535 -0.0999994
      vertex 15.703 152.852 -0.0999986
      vertex -15.8651 153.17 -0.0999994
    endloop
  endfacet
  facet normal 4.11978e-009 -2.37055e-008 -1
    outer loop
      vertex -18.427 155.353 -0.0999994
      vertex -16.2302 153.535 -0.0999994
      vertex -16.6901 153.769 -0.0999994
    endloop
  endfacet
  facet normal 2.9958e-008 4.62867e-009 -1
    outer loop
      vertex -18.427 155.353 -0.0999994
      vertex -16.6901 153.769 -0.0999994
      vertex -17.2 153.85 -0.0999994
    endloop
  endfacet
  facet normal 2.45185e-008 9.40793e-010 -1
    outer loop
      vertex -16.2302 153.535 -0.0999994
      vertex -18.427 155.353 -0.0999994
      vertex 15.703 152.852 -0.0999986
    endloop
  endfacet
  facet normal 2.86597e-008 3.56887e-009 -1
    outer loop
      vertex -17.7099 153.769 -0.0999994
      vertex -18.427 155.353 -0.0999994
      vertex -17.2 153.85 -0.0999994
    endloop
  endfacet
  facet normal 2.47619e-008 1.804e-009 -1
    outer loop
      vertex -18.427 155.353 -0.0999994
      vertex -17.7099 153.769 -0.0999994
      vertex -18 153.621 -0.0999994
    endloop
  endfacet
  facet normal 0.453991 -0.891006 0
    outer loop
      vertex 18.4271 -5.35317 -0.0999985
      vertex 19.2634 -4.92705 2
      vertex 18.4271 -5.35317 2
    endloop
  endfacet
  facet normal 0.453991 -0.891006 0
    outer loop
      vertex 19.2634 -4.92705 2
      vertex 18.4271 -5.35317 -0.0999985
      vertex 19.2634 -4.92705 -0.0999985
    endloop
  endfacet
  facet normal 2.44927e-008 1.24796e-008 -1
    outer loop
      vertex 18.1685 153.536 -0.0999985
      vertex 19.9271 154.263 -0.0999985
      vertex 20.3532 153.427 -0.0999985
    endloop
  endfacet
  facet normal 2.36461e-008 1.45252e-008 -1
    outer loop
      vertex 17.7099 153.769 -0.0999985
      vertex 19.9271 154.263 -0.0999985
      vertex 18.1685 153.536 -0.0999985
    endloop
  endfacet
  facet normal 2.82521e-008 -6.14258e-009 -1
    outer loop
      vertex 17.2 153.85 -0.0999985
      vertex 19.9271 154.263 -0.0999985
      vertex 17.7099 153.769 -0.0999985
    endloop
  endfacet
  facet normal 2.52527e-008 1.36456e-008 -1
    outer loop
      vertex 17.2 153.85 -0.0999985
      vertex -18.427 155.353 -0.0999994
      vertex 19.9271 154.263 -0.0999985
    endloop
  endfacet
  facet normal 2.56336e-008 2.26722e-008 -1
    outer loop
      vertex 16.6901 153.769 -0.0999986
      vertex -18.427 155.353 -0.0999994
      vertex 17.2 153.85 -0.0999985
    endloop
  endfacet
  facet normal 2.47237e-008 2.50014e-009 -1
    outer loop
      vertex -18.427 155.353 -0.0999994
      vertex 16.6901 153.769 -0.0999986
      vertex 16.4035 153.623 -0.0999986
    endloop
  endfacet
  facet normal 2.55922e-008 2.55922e-008 -1
    outer loop
      vertex 19.9271 154.263 -0.0999985
      vertex -18.427 155.353 -0.0999994
      vertex 19.2634 154.927 -0.0999985
    endloop
  endfacet
  facet normal -0.987688 -0.156435 0
    outer loop
      vertex -15.55 -2.2 -0.0999994
      vertex -15.6308 -1.69012 2
      vertex -15.6308 -1.69012 -0.0999994
    endloop
  endfacet
  facet normal -0.987688 -0.156435 0
    outer loop
      vertex -15.6308 -1.69012 2
      vertex -15.55 -2.2 -0.0999994
      vertex -15.55 -2.2 2
    endloop
  endfacet
  facet normal -0.156435 -0.987688 0
    outer loop
      vertex -17.2 -0.549999 2
      vertex -16.6901 -0.630756 -0.0999994
      vertex -16.6901 -0.630756 2
    endloop
  endfacet
  facet normal -0.156435 -0.987688 0
    outer loop
      vertex -16.6901 -0.630756 -0.0999994
      vertex -17.2 -0.549999 2
      vertex -17.2 -0.549999 -0.0999994
    endloop
  endfacet
  facet normal 0.987689 0.156432 0
    outer loop
      vertex -18.7692 -2.70988 2
      vertex -18.85 -2.2 -0.0999994
      vertex -18.85 -2.2 2
    endloop
  endfacet
  facet normal 0.987689 0.156432 0
    outer loop
      vertex -18.85 -2.2 -0.0999994
      vertex -18.7692 -2.70988 2
      vertex -18.7692 -2.70988 -0.0999994
    endloop
  endfacet
  facet normal -0.453992 0.891006 0
    outer loop
      vertex -16.2302 -3.53488 -0.0999994
      vertex -16.6901 -3.76924 2
      vertex -16.2302 -3.53488 2
    endloop
  endfacet
  facet normal -0.453992 0.891006 0
    outer loop
      vertex -16.6901 -3.76924 2
      vertex -16.2302 -3.53488 -0.0999994
      vertex -16.6901 -3.76924 -0.0999994
    endloop
  endfacet
  facet normal -0.156433 0.987689 0
    outer loop
      vertex -16.6901 -3.76924 -0.0999994
      vertex -17.2 -3.85 2
      vertex -16.6901 -3.76924 2
    endloop
  endfacet
  facet normal -0.156433 0.987689 0
    outer loop
      vertex -17.2 -3.85 2
      vertex -16.6901 -3.76924 -0.0999994
      vertex -17.2 -3.85 -0.0999994
    endloop
  endfacet
  facet normal -0.891006 -0.453991 0
    outer loop
      vertex -15.6308 -1.69012 -0.0999994
      vertex -15.8651 -1.23015 2
      vertex -15.8651 -1.23015 -0.0999994
    endloop
  endfacet
  facet normal -0.891006 -0.453991 0
    outer loop
      vertex -15.8651 -1.23015 2
      vertex -15.6308 -1.69012 -0.0999994
      vertex -15.6308 -1.69012 2
    endloop
  endfacet
  facet normal 0.156436 -0.987688 0
    outer loop
      vertex -17.7099 -0.630756 2
      vertex -17.2 -0.549999 -0.0999994
      vertex -17.2 -0.549999 2
    endloop
  endfacet
  facet normal 0.156436 -0.987688 0
    outer loop
      vertex -17.2 -0.549999 -0.0999994
      vertex -17.7099 -0.630756 2
      vertex -17.7099 -0.630756 -0.0999994
    endloop
  endfacet
  facet normal 0.45399 -0.891007 0
    outer loop
      vertex -18.1698 -0.865122 2
      vertex -17.7099 -0.630756 -0.0999994
      vertex -17.7099 -0.630756 2
    endloop
  endfacet
  facet normal 0.45399 -0.891007 0
    outer loop
      vertex -17.7099 -0.630756 -0.0999994
      vertex -18.1698 -0.865122 2
      vertex -18.1698 -0.865122 -0.0999994
    endloop
  endfacet
  facet normal 0.891006 0.453991 0
    outer loop
      vertex -18.5349 -3.16985 2
      vertex -18.7692 -2.70988 -0.0999994
      vertex -18.7692 -2.70988 2
    endloop
  endfacet
  facet normal 0.891006 0.453991 0
    outer loop
      vertex -18.7692 -2.70988 -0.0999994
      vertex -18.5349 -3.16985 2
      vertex -18.5349 -3.16985 -0.0999994
    endloop
  endfacet
  facet normal 0.156434 0.987688 -0
    outer loop
      vertex -17.2 -3.85 -0.0999994
      vertex -17.7099 -3.76924 2
      vertex -17.2 -3.85 2
    endloop
  endfacet
  facet normal 0.156434 0.987688 0
    outer loop
      vertex -17.7099 -3.76924 2
      vertex -17.2 -3.85 -0.0999994
      vertex -17.7099 -3.76924 -0.0999994
    endloop
  endfacet
  facet normal -0.707107 -0.707107 0
    outer loop
      vertex -15.8651 -1.23015 -0.0999994
      vertex -16.2302 -0.865122 2
      vertex -16.2302 -0.865122 -0.0999994
    endloop
  endfacet
  facet normal -0.707107 -0.707107 0
    outer loop
      vertex -16.2302 -0.865122 2
      vertex -15.8651 -1.23015 -0.0999994
      vertex -15.8651 -1.23015 2
    endloop
  endfacet
  facet normal -0.453992 -0.891006 0
    outer loop
      vertex -16.6901 -0.630756 2
      vertex -16.2302 -0.865122 -0.0999994
      vertex -16.2302 -0.865122 2
    endloop
  endfacet
  facet normal -0.453992 -0.891006 0
    outer loop
      vertex -16.2302 -0.865122 -0.0999994
      vertex -16.6901 -0.630756 2
      vertex -16.6901 -0.630756 -0.0999994
    endloop
  endfacet
  facet normal 0.987689 -0.156432 0
    outer loop
      vertex -18.85 -2.2 2
      vertex -18.7692 -1.69012 -0.0999994
      vertex -18.7692 -1.69012 2
    endloop
  endfacet
  facet normal 0.987689 -0.156432 0
    outer loop
      vertex -18.7692 -1.69012 -0.0999994
      vertex -18.85 -2.2 2
      vertex -18.85 -2.2 -0.0999994
    endloop
  endfacet
  facet normal 0.707108 -0.707105 0
    outer loop
      vertex -18.1698 -0.865122 2
      vertex -18.427 -1.12233 -0.0999994
      vertex -18.1698 -0.865122 -0.0999994
    endloop
  endfacet
  facet normal 0.707107 -0.707107 3.21119e-007
    outer loop
      vertex -18.5349 -1.23015 2
      vertex -18.427 -1.12233 -0.0999994
      vertex -18.1698 -0.865122 2
    endloop
  endfacet
  facet normal 0.707104 -0.70711 0
    outer loop
      vertex -18.427 -1.12233 -0.0999994
      vertex -18.5349 -1.23015 2
      vertex -18.5349 -1.23015 -0.0999994
    endloop
  endfacet
  facet normal 0.891006 -0.453991 0
    outer loop
      vertex -18.7692 -1.69012 2
      vertex -18.5349 -1.23015 -0.0999994
      vertex -18.5349 -1.23015 2
    endloop
  endfacet
  facet normal 0.891006 -0.453991 0
    outer loop
      vertex -18.5349 -1.23015 -0.0999994
      vertex -18.7692 -1.69012 2
      vertex -18.7692 -1.69012 -0.0999994
    endloop
  endfacet
  facet normal -0.707107 0.707107 0
    outer loop
      vertex -16.2302 -3.53488 -0.0999994
      vertex -15.8651 -3.16985 2
      vertex -15.8651 -3.16985 -0.0999994
    endloop
  endfacet
  facet normal -0.707107 0.707107 0
    outer loop
      vertex -15.8651 -3.16985 2
      vertex -16.2302 -3.53488 -0.0999994
      vertex -16.2302 -3.53488 2
    endloop
  endfacet
  facet normal -0.987688 0.156435 0
    outer loop
      vertex -15.6308 -2.70988 -0.0999994
      vertex -15.55 -2.2 2
      vertex -15.55 -2.2 -0.0999994
    endloop
  endfacet
  facet normal -0.987688 0.156435 0
    outer loop
      vertex -15.55 -2.2 2
      vertex -15.6308 -2.70988 -0.0999994
      vertex -15.6308 -2.70988 2
    endloop
  endfacet
  facet normal 0.707104 0.70711 0
    outer loop
      vertex -18.5349 -3.16985 2
      vertex -18.427 -3.27767 -0.0999994
      vertex -18.5349 -3.16985 -0.0999994
    endloop
  endfacet
  facet normal 0.707107 0.707107 3.21119e-007
    outer loop
      vertex -18.1698 -3.53488 2
      vertex -18.427 -3.27767 -0.0999994
      vertex -18.5349 -3.16985 2
    endloop
  endfacet
  facet normal 0.707108 0.707105 0
    outer loop
      vertex -18.427 -3.27767 -0.0999994
      vertex -18.1698 -3.53488 2
      vertex -18.1698 -3.53488 -0.0999994
    endloop
  endfacet
  facet normal 0.45399 0.891007 -0
    outer loop
      vertex -17.7099 -3.76924 -0.0999994
      vertex -18.1698 -3.53488 2
      vertex -17.7099 -3.76924 2
    endloop
  endfacet
  facet normal 0.45399 0.891007 0
    outer loop
      vertex -18.1698 -3.53488 2
      vertex -17.7099 -3.76924 -0.0999994
      vertex -18.1698 -3.53488 -0.0999994
    endloop
  endfacet
  facet normal -0.891006 0.453991 0
    outer loop
      vertex -15.8651 -3.16985 -0.0999994
      vertex -15.6308 -2.70988 2
      vertex -15.6308 -2.70988 -0.0999994
    endloop
  endfacet
  facet normal -0.891006 0.453991 0
    outer loop
      vertex -15.6308 -2.70988 2
      vertex -15.8651 -3.16985 -0.0999994
      vertex -15.8651 -3.16985 2
    endloop
  endfacet
  facet normal 0.156435 -0.987688 0
    outer loop
      vertex 16.6901 -0.630756 2
      vertex 17.2 -0.549999 -0.0999986
      vertex 17.2 -0.549999 2
    endloop
  endfacet
  facet normal 0.156435 -0.987688 0
    outer loop
      vertex 17.2 -0.549999 -0.0999986
      vertex 16.6901 -0.630756 2
      vertex 16.6901 -0.630756 -0.0999986
    endloop
  endfacet
  facet normal 0.987688 -0.156435 0
    outer loop
      vertex 15.55 -2.2 2
      vertex 15.6308 -1.69012 -0.0999986
      vertex 15.6308 -1.69012 2
    endloop
  endfacet
  facet normal 0.987688 -0.156435 0
    outer loop
      vertex 15.6308 -1.69012 -0.0999986
      vertex 15.55 -2.2 2
      vertex 15.55 -2.2 -0.0999986
    endloop
  endfacet
  facet normal -0.156434 0.987688 0
    outer loop
      vertex 17.7099 -3.76924 -0.0999985
      vertex 17.2 -3.85 2
      vertex 17.7099 -3.76924 2
    endloop
  endfacet
  facet normal -0.156434 0.987688 0
    outer loop
      vertex 17.2 -3.85 2
      vertex 17.7099 -3.76924 -0.0999985
      vertex 17.2 -3.85 -0.0999985
    endloop
  endfacet
  facet normal -0.987689 -0.156432 0
    outer loop
      vertex 18.85 -2.2 -0.0999985
      vertex 18.7692 -1.69012 2
      vertex 18.7692 -1.69012 -0.0999985
    endloop
  endfacet
  facet normal -0.987689 -0.156432 0
    outer loop
      vertex 18.7692 -1.69012 2
      vertex 18.85 -2.2 -0.0999985
      vertex 18.85 -2.2 2
    endloop
  endfacet
  facet normal 0.453992 -0.891006 0
    outer loop
      vertex 16.2302 -0.865122 2
      vertex 16.6901 -0.630756 -0.0999986
      vertex 16.6901 -0.630756 2
    endloop
  endfacet
  facet normal 0.453992 -0.891006 0
    outer loop
      vertex 16.6901 -0.630756 -0.0999986
      vertex 16.2302 -0.865122 2
      vertex 16.2302 -0.865122 -0.0999986
    endloop
  endfacet
  facet normal 0.891006 0.453992 0
    outer loop
      vertex 15.6308 -2.70988 2
      vertex 15.703 -2.8516 -0.0999986
      vertex 15.6308 -2.70988 -0.0999986
    endloop
  endfacet
  facet normal 0.891006 0.453991 1.01237e-007
    outer loop
      vertex 15.8651 -3.16985 2
      vertex 15.703 -2.8516 -0.0999986
      vertex 15.6308 -2.70988 2
    endloop
  endfacet
  facet normal 0.891007 0.45399 0
    outer loop
      vertex 15.703 -2.8516 -0.0999986
      vertex 15.8651 -3.16985 2
      vertex 15.8651 -3.16985 -0.0999986
    endloop
  endfacet
  facet normal 0.156433 0.987689 -0
    outer loop
      vertex 17.2 -3.85 -0.0999985
      vertex 16.6901 -3.76924 2
      vertex 17.2 -3.85 2
    endloop
  endfacet
  facet normal 0.156433 0.987689 0
    outer loop
      vertex 16.6901 -3.76924 2
      vertex 17.2 -3.85 -0.0999985
      vertex 16.6901 -3.76924 -0.0999986
    endloop
  endfacet
  facet normal -0.156436 -0.987688 0
    outer loop
      vertex 17.2 -0.549999 2
      vertex 17.7099 -0.630756 -0.0999985
      vertex 17.7099 -0.630756 2
    endloop
  endfacet
  facet normal -0.156436 -0.987688 0
    outer loop
      vertex 17.7099 -0.630756 -0.0999985
      vertex 17.2 -0.549999 2
      vertex 17.2 -0.549999 -0.0999986
    endloop
  endfacet
  facet normal -0.891006 -0.453991 0
    outer loop
      vertex 18.7692 -1.69012 -0.0999985
      vertex 18.5349 -1.23015 2
      vertex 18.5349 -1.23015 -0.0999985
    endloop
  endfacet
  facet normal -0.891006 -0.453991 0
    outer loop
      vertex 18.5349 -1.23015 2
      vertex 18.7692 -1.69012 -0.0999985
      vertex 18.7692 -1.69012 2
    endloop
  endfacet
  facet normal -0.454083 0.890959 0
    outer loop
      vertex 18.1685 -3.53556 -0.0999985
      vertex 18.1698 -3.53488 2
      vertex 18.1698 -3.53488 -0.0999985
    endloop
  endfacet
  facet normal -0.45399 0.891007 -7.44984e-008
    outer loop
      vertex 18.1698 -3.53488 2
      vertex 18.1685 -3.53556 -0.0999985
      vertex 17.7099 -3.76924 2
    endloop
  endfacet
  facet normal -0.45399 0.891007 0
    outer loop
      vertex 17.7099 -3.76924 2
      vertex 18.1685 -3.53556 -0.0999985
      vertex 17.7099 -3.76924 -0.0999985
    endloop
  endfacet
  facet normal -0.987689 0.156431 0
    outer loop
      vertex 18.7825 -2.62588 -0.0999985
      vertex 18.85 -2.2 2
      vertex 18.85 -2.2 -0.0999985
    endloop
  endfacet
  facet normal -0.987688 0.156434 0
    outer loop
      vertex 18.7692 -2.70988 2
      vertex 18.7825 -2.62588 -0.0999985
      vertex 18.7692 -2.70988 -0.0999985
    endloop
  endfacet
  facet normal -0.987689 0.156432 -1.06961e-007
    outer loop
      vertex 18.7825 -2.62588 -0.0999985
      vertex 18.7692 -2.70988 2
      vertex 18.85 -2.2 2
    endloop
  endfacet
  facet normal 0.707107 -0.707107 0
    outer loop
      vertex 15.8651 -1.23015 2
      vertex 16.2302 -0.865122 -0.0999986
      vertex 16.2302 -0.865122 2
    endloop
  endfacet
  facet normal 0.707107 -0.707107 0
    outer loop
      vertex 16.2302 -0.865122 -0.0999986
      vertex 15.8651 -1.23015 2
      vertex 15.8651 -1.23015 -0.0999986
    endloop
  endfacet
  facet normal 0.891006 -0.453991 0
    outer loop
      vertex 15.6308 -1.69012 2
      vertex 15.8651 -1.23015 -0.0999986
      vertex 15.8651 -1.23015 2
    endloop
  endfacet
  facet normal 0.891006 -0.453991 0
    outer loop
      vertex 15.8651 -1.23015 -0.0999986
      vertex 15.6308 -1.69012 2
      vertex 15.6308 -1.69012 -0.0999986
    endloop
  endfacet
  facet normal 0.987688 0.156435 0
    outer loop
      vertex 15.6308 -2.70988 2
      vertex 15.55 -2.2 -0.0999986
      vertex 15.55 -2.2 2
    endloop
  endfacet
  facet normal 0.987688 0.156435 0
    outer loop
      vertex 15.55 -2.2 -0.0999986
      vertex 15.6308 -2.70988 2
      vertex 15.6308 -2.70988 -0.0999986
    endloop
  endfacet
  facet normal 0.707107 0.707107 0
    outer loop
      vertex 16.2302 -3.53488 2
      vertex 15.8651 -3.16985 -0.0999986
      vertex 15.8651 -3.16985 2
    endloop
  endfacet
  facet normal 0.707107 0.707107 0
    outer loop
      vertex 15.8651 -3.16985 -0.0999986
      vertex 16.2302 -3.53488 2
      vertex 16.2302 -3.53488 -0.0999986
    endloop
  endfacet
  facet normal 0.453992 0.891006 0
    outer loop
      vertex 16.4035 -3.62322 -0.0999986
      vertex 16.6901 -3.76924 2
      vertex 16.6901 -3.76924 -0.0999986
    endloop
  endfacet
  facet normal 0.453992 0.891006 1.17325e-007
    outer loop
      vertex 16.6901 -3.76924 2
      vertex 16.4035 -3.62322 -0.0999986
      vertex 16.2302 -3.53488 2
    endloop
  endfacet
  facet normal 0.453991 0.891007 0
    outer loop
      vertex 16.2302 -3.53488 2
      vertex 16.4035 -3.62322 -0.0999986
      vertex 16.2302 -3.53488 -0.0999986
    endloop
  endfacet
  facet normal -0.707107 -0.707107 0
    outer loop
      vertex 18.5349 -1.23015 -0.0999985
      vertex 18.1698 -0.865122 2
      vertex 18.1698 -0.865122 -0.0999985
    endloop
  endfacet
  facet normal -0.707107 -0.707107 0
    outer loop
      vertex 18.1698 -0.865122 2
      vertex 18.5349 -1.23015 -0.0999985
      vertex 18.5349 -1.23015 2
    endloop
  endfacet
  facet normal -0.707107 0.707107 0
    outer loop
      vertex 18.1698 -3.53488 -0.0999985
      vertex 18.5349 -3.16985 2
      vertex 18.5349 -3.16985 -0.0999985
    endloop
  endfacet
  facet normal -0.707107 0.707107 0
    outer loop
      vertex 18.5349 -3.16985 2
      vertex 18.1698 -3.53488 -0.0999985
      vertex 18.1698 -3.53488 2
    endloop
  endfacet
  facet normal -0.891006 0.453991 0
    outer loop
      vertex 18.5349 -3.16985 -0.0999985
      vertex 18.7692 -2.70988 2
      vertex 18.7692 -2.70988 -0.0999985
    endloop
  endfacet
  facet normal -0.891006 0.453991 0
    outer loop
      vertex 18.7692 -2.70988 2
      vertex 18.5349 -3.16985 -0.0999985
      vertex 18.5349 -3.16985 2
    endloop
  endfacet
  facet normal -0.45399 -0.891007 0
    outer loop
      vertex 17.7099 -0.630756 2
      vertex 18.1698 -0.865122 -0.0999985
      vertex 18.1698 -0.865122 2
    endloop
  endfacet
  facet normal -0.45399 -0.891007 0
    outer loop
      vertex 18.1698 -0.865122 -0.0999985
      vertex 17.7099 -0.630756 2
      vertex 17.7099 -0.630756 -0.0999985
    endloop
  endfacet
  facet normal 0.987688 0.156437 0
    outer loop
      vertex 15.6308 151.69 2
      vertex 15.55 152.2 -0.0999986
      vertex 15.55 152.2 2
    endloop
  endfacet
  facet normal 0.987688 0.156437 0
    outer loop
      vertex 15.55 152.2 -0.0999986
      vertex 15.6308 151.69 2
      vertex 15.6308 151.69 -0.0999986
    endloop
  endfacet
  facet normal -0.987689 -0.156429 0
    outer loop
      vertex 18.7825 152.626 -0.0999985
      vertex 18.7692 152.71 2
      vertex 18.7692 152.71 -0.0999985
    endloop
  endfacet
  facet normal -0.987689 -0.156429 -0
    outer loop
      vertex 18.85 152.2 2
      vertex 18.7825 152.626 -0.0999985
      vertex 18.85 152.2 -0.0999985
    endloop
  endfacet
  facet normal -0.987689 -0.156429 -1.08726e-008
    outer loop
      vertex 18.7825 152.626 -0.0999985
      vertex 18.85 152.2 2
      vertex 18.7692 152.71 2
    endloop
  endfacet
  facet normal 0.15642 0.987691 -0
    outer loop
      vertex 17.2 150.55 -0.0999986
      vertex 16.6901 150.631 2
      vertex 17.2 150.55 2
    endloop
  endfacet
  facet normal 0.15642 0.987691 0
    outer loop
      vertex 16.6901 150.631 2
      vertex 17.2 150.55 -0.0999986
      vertex 16.6901 150.631 -0.0999986
    endloop
  endfacet
  facet normal 0.156449 -0.987686 0
    outer loop
      vertex 16.6901 153.769 2
      vertex 17.2 153.85 -0.0999985
      vertex 17.2 153.85 2
    endloop
  endfacet
  facet normal 0.156449 -0.987686 0
    outer loop
      vertex 17.2 153.85 -0.0999985
      vertex 16.6901 153.769 2
      vertex 16.6901 153.769 -0.0999986
    endloop
  endfacet
  facet normal 0.89101 0.453984 0
    outer loop
      vertex 15.8651 151.23 2
      vertex 15.6308 151.69 -0.0999986
      vertex 15.6308 151.69 2
    endloop
  endfacet
  facet normal 0.89101 0.453984 0
    outer loop
      vertex 15.6308 151.69 -0.0999986
      vertex 15.8651 151.23 2
      vertex 15.8651 151.23 -0.0999986
    endloop
  endfacet
  facet normal -0.454005 0.890999 0
    outer loop
      vertex 18.1698 150.865 -0.0999985
      vertex 17.7099 150.631 2
      vertex 18.1698 150.865 2
    endloop
  endfacet
  facet normal -0.454005 0.890999 0
    outer loop
      vertex 17.7099 150.631 2
      vertex 18.1698 150.865 -0.0999985
      vertex 17.7099 150.631 -0.0999985
    endloop
  endfacet
  facet normal -0.987689 0.156433 0
    outer loop
      vertex 18.7692 151.69 -0.0999985
      vertex 18.85 152.2 2
      vertex 18.85 152.2 -0.0999985
    endloop
  endfacet
  facet normal -0.987689 0.156433 0
    outer loop
      vertex 18.85 152.2 2
      vertex 18.7692 151.69 -0.0999985
      vertex 18.7692 151.69 2
    endloop
  endfacet
  facet normal 0.987689 -0.156432 0
    outer loop
      vertex 15.55 152.2 2
      vertex 15.6308 152.71 -0.0999986
      vertex 15.6308 152.71 2
    endloop
  endfacet
  facet normal 0.987689 -0.156432 0
    outer loop
      vertex 15.6308 152.71 -0.0999986
      vertex 15.55 152.2 2
      vertex 15.55 152.2 -0.0999986
    endloop
  endfacet
  facet normal 0.453983 -0.89101 2.74275e-006
    outer loop
      vertex 16.4035 153.623 -0.0999986
      vertex 16.6901 153.769 2
      vertex 16.2302 153.535 2
    endloop
  endfacet
  facet normal 0.453999 -0.891002 0
    outer loop
      vertex 16.6901 153.769 2
      vertex 16.4035 153.623 -0.0999986
      vertex 16.6901 153.769 -0.0999986
    endloop
  endfacet
  facet normal 0.453956 -0.891024 0
    outer loop
      vertex 16.4035 153.623 -0.0999986
      vertex 16.2302 153.535 2
      vertex 16.2302 153.535 -0.0999986
    endloop
  endfacet
  facet normal -0.891004 -0.453996 0
    outer loop
      vertex 18.7692 152.71 -0.0999985
      vertex 18.5349 153.17 2
      vertex 18.5349 153.17 -0.0999985
    endloop
  endfacet
  facet normal -0.891004 -0.453996 0
    outer loop
      vertex 18.5349 153.17 2
      vertex 18.7692 152.71 -0.0999985
      vertex 18.7692 152.71 2
    endloop
  endfacet
  facet normal -0.15645 -0.987686 0
    outer loop
      vertex 17.2 153.85 2
      vertex 17.7099 153.769 -0.0999985
      vertex 17.7099 153.769 2
    endloop
  endfacet
  facet normal -0.15645 -0.987686 0
    outer loop
      vertex 17.7099 153.769 -0.0999985
      vertex 17.2 153.85 2
      vertex 17.2 153.85 -0.0999985
    endloop
  endfacet
  facet normal 0.707096 0.707118 -0
    outer loop
      vertex 16.2302 150.865 -0.0999986
      vertex 15.8651 151.23 2
      vertex 16.2302 150.865 2
    endloop
  endfacet
  facet normal 0.707096 0.707118 0
    outer loop
      vertex 15.8651 151.23 2
      vertex 16.2302 150.865 -0.0999986
      vertex 15.8651 151.23 -0.0999986
    endloop
  endfacet
  facet normal 0.454006 0.890998 -0
    outer loop
      vertex 16.6901 150.631 -0.0999986
      vertex 16.2302 150.865 2
      vertex 16.6901 150.631 2
    endloop
  endfacet
  facet normal 0.454006 0.890998 0
    outer loop
      vertex 16.2302 150.865 2
      vertex 16.6901 150.631 -0.0999986
      vertex 16.2302 150.865 -0.0999986
    endloop
  endfacet
  facet normal -0.156421 0.98769 0
    outer loop
      vertex 17.7099 150.631 -0.0999985
      vertex 17.2 150.55 2
      vertex 17.7099 150.631 2
    endloop
  endfacet
  facet normal -0.156421 0.98769 0
    outer loop
      vertex 17.2 150.55 2
      vertex 17.7099 150.631 -0.0999985
      vertex 17.2 150.55 -0.0999986
    endloop
  endfacet
  facet normal -0.707096 0.707118 0
    outer loop
      vertex 18.5349 151.23 -0.0999985
      vertex 18.1698 150.865 2
      vertex 18.5349 151.23 2
    endloop
  endfacet
  facet normal -0.707096 0.707118 0
    outer loop
      vertex 18.1698 150.865 2
      vertex 18.5349 151.23 -0.0999985
      vertex 18.1698 150.865 -0.0999985
    endloop
  endfacet
  facet normal -0.89101 0.453984 0
    outer loop
      vertex 18.5349 151.23 -0.0999985
      vertex 18.7692 151.69 2
      vertex 18.7692 151.69 -0.0999985
    endloop
  endfacet
  facet normal -0.89101 0.453984 0
    outer loop
      vertex 18.7692 151.69 2
      vertex 18.5349 151.23 -0.0999985
      vertex 18.5349 151.23 2
    endloop
  endfacet
  facet normal 0.70711 -0.707103 0
    outer loop
      vertex 15.8651 153.17 2
      vertex 16.2302 153.535 -0.0999986
      vertex 16.2302 153.535 2
    endloop
  endfacet
  facet normal 0.70711 -0.707103 0
    outer loop
      vertex 16.2302 153.535 -0.0999986
      vertex 15.8651 153.17 2
      vertex 15.8651 153.17 -0.0999986
    endloop
  endfacet
  facet normal -0.70711 -0.707103 0
    outer loop
      vertex 18.5349 153.17 -0.0999985
      vertex 18.1698 153.535 2
      vertex 18.1698 153.535 -0.0999985
    endloop
  endfacet
  facet normal -0.70711 -0.707103 0
    outer loop
      vertex 18.1698 153.535 2
      vertex 18.5349 153.17 -0.0999985
      vertex 18.5349 153.17 2
    endloop
  endfacet
  facet normal -0.453981 -0.891011 3.35787e-006
    outer loop
      vertex 17.7099 153.769 2
      vertex 18.1685 153.536 -0.0999985
      vertex 18.1698 153.535 2
    endloop
  endfacet
  facet normal -0.453994 -0.891005 0
    outer loop
      vertex 18.1685 153.536 -0.0999985
      vertex 17.7099 153.769 2
      vertex 17.7099 153.769 -0.0999985
    endloop
  endfacet
  facet normal -0.449767 -0.893146 -0
    outer loop
      vertex 18.1698 153.535 2
      vertex 18.1685 153.536 -0.0999985
      vertex 18.1698 153.535 -0.0999985
    endloop
  endfacet
  facet normal 0.891011 -0.453983 0
    outer loop
      vertex 15.8651 153.17 2
      vertex 15.703 152.852 -0.0999986
      vertex 15.8651 153.17 -0.0999986
    endloop
  endfacet
  facet normal 0.891004 -0.453996 2.59454e-006
    outer loop
      vertex 15.6308 152.71 2
      vertex 15.703 152.852 -0.0999986
      vertex 15.8651 153.17 2
    endloop
  endfacet
  facet normal 0.890988 -0.454027 0
    outer loop
      vertex 15.703 152.852 -0.0999986
      vertex 15.6308 152.71 2
      vertex 15.6308 152.71 -0.0999986
    endloop
  endfacet
  facet normal -0.15642 0.987691 0
    outer loop
      vertex -16.6901 150.631 -0.0999994
      vertex -17.2 150.55 2
      vertex -16.6901 150.631 2
    endloop
  endfacet
  facet normal -0.15642 0.987691 0
    outer loop
      vertex -17.2 150.55 2
      vertex -16.6901 150.631 -0.0999994
      vertex -17.2 150.55 -0.0999994
    endloop
  endfacet
  facet normal 0.15645 -0.987686 0
    outer loop
      vertex -17.7099 153.769 2
      vertex -17.2 153.85 -0.0999994
      vertex -17.2 153.85 2
    endloop
  endfacet
  facet normal 0.15645 -0.987686 0
    outer loop
      vertex -17.2 153.85 -0.0999994
      vertex -17.7099 153.769 2
      vertex -17.7099 153.769 -0.0999994
    endloop
  endfacet
  facet normal -0.987688 0.156437 0
    outer loop
      vertex -15.6308 151.69 -0.0999994
      vertex -15.55 152.2 2
      vertex -15.55 152.2 -0.0999994
    endloop
  endfacet
  facet normal -0.987688 0.156437 0
    outer loop
      vertex -15.55 152.2 2
      vertex -15.6308 151.69 -0.0999994
      vertex -15.6308 151.69 2
    endloop
  endfacet
  facet normal 0.89101 0.453984 0
    outer loop
      vertex -18.5349 151.23 2
      vertex -18.7692 151.69 -0.0999994
      vertex -18.7692 151.69 2
    endloop
  endfacet
  facet normal 0.89101 0.453984 0
    outer loop
      vertex -18.7692 151.69 -0.0999994
      vertex -18.5349 151.23 2
      vertex -18.5349 151.23 -0.0999994
    endloop
  endfacet
  facet normal 0.987689 0.156433 0
    outer loop
      vertex -18.7692 151.69 2
      vertex -18.85 152.2 -0.0999994
      vertex -18.85 152.2 2
    endloop
  endfacet
  facet normal 0.987689 0.156433 0
    outer loop
      vertex -18.85 152.2 -0.0999994
      vertex -18.7692 151.69 2
      vertex -18.7692 151.69 -0.0999994
    endloop
  endfacet
  facet normal -0.454006 0.890998 0
    outer loop
      vertex -16.2302 150.865 -0.0999994
      vertex -16.6901 150.631 2
      vertex -16.2302 150.865 2
    endloop
  endfacet
  facet normal -0.454006 0.890998 0
    outer loop
      vertex -16.6901 150.631 2
      vertex -16.2302 150.865 -0.0999994
      vertex -16.6901 150.631 -0.0999994
    endloop
  endfacet
  facet normal -0.987689 -0.156432 0
    outer loop
      vertex -15.55 152.2 -0.0999994
      vertex -15.6308 152.71 2
      vertex -15.6308 152.71 -0.0999994
    endloop
  endfacet
  facet normal -0.987689 -0.156432 0
    outer loop
      vertex -15.6308 152.71 2
      vertex -15.55 152.2 -0.0999994
      vertex -15.55 152.2 2
    endloop
  endfacet
  facet normal -0.891004 -0.453996 0
    outer loop
      vertex -15.6308 152.71 -0.0999994
      vertex -15.8651 153.17 2
      vertex -15.8651 153.17 -0.0999994
    endloop
  endfacet
  facet normal -0.891004 -0.453996 0
    outer loop
      vertex -15.8651 153.17 2
      vertex -15.6308 152.71 -0.0999994
      vertex -15.6308 152.71 2
    endloop
  endfacet
  facet normal 0.453981 -0.891011 3.30946e-006
    outer loop
      vertex -18 153.621 -0.0999994
      vertex -17.7099 153.769 2
      vertex -18.1698 153.535 2
    endloop
  endfacet
  facet normal 0.453949 -0.891028 0
    outer loop
      vertex -18 153.621 -0.0999994
      vertex -18.1698 153.535 2
      vertex -18.1698 153.535 -0.0999994
    endloop
  endfacet
  facet normal 0.454 -0.891001 0
    outer loop
      vertex -17.7099 153.769 2
      vertex -18 153.621 -0.0999994
      vertex -17.7099 153.769 -0.0999994
    endloop
  endfacet
  facet normal -0.707096 0.707118 0
    outer loop
      vertex -15.8651 151.23 -0.0999994
      vertex -16.2302 150.865 2
      vertex -15.8651 151.23 2
    endloop
  endfacet
  facet normal -0.707096 0.707118 0
    outer loop
      vertex -16.2302 150.865 2
      vertex -15.8651 151.23 -0.0999994
      vertex -16.2302 150.865 -0.0999994
    endloop
  endfacet
  facet normal -0.89101 0.453984 0
    outer loop
      vertex -15.8651 151.23 -0.0999994
      vertex -15.6308 151.69 2
      vertex -15.6308 151.69 -0.0999994
    endloop
  endfacet
  facet normal -0.89101 0.453984 0
    outer loop
      vertex -15.6308 151.69 2
      vertex -15.8651 151.23 -0.0999994
      vertex -15.8651 151.23 2
    endloop
  endfacet
  facet normal -0.156449 -0.987686 0
    outer loop
      vertex -17.2 153.85 2
      vertex -16.6901 153.769 -0.0999994
      vertex -16.6901 153.769 2
    endloop
  endfacet
  facet normal -0.156449 -0.987686 0
    outer loop
      vertex -16.6901 153.769 -0.0999994
      vertex -17.2 153.85 2
      vertex -17.2 153.85 -0.0999994
    endloop
  endfacet
  facet normal -0.70711 -0.707103 0
    outer loop
      vertex -15.8651 153.17 -0.0999994
      vertex -16.2302 153.535 2
      vertex -16.2302 153.535 -0.0999994
    endloop
  endfacet
  facet normal -0.70711 -0.707103 0
    outer loop
      vertex -16.2302 153.535 2
      vertex -15.8651 153.17 -0.0999994
      vertex -15.8651 153.17 2
    endloop
  endfacet
  facet normal -0.453983 -0.89101 0
    outer loop
      vertex -16.6901 153.769 2
      vertex -16.2302 153.535 -0.0999994
      vertex -16.2302 153.535 2
    endloop
  endfacet
  facet normal -0.453983 -0.89101 0
    outer loop
      vertex -16.2302 153.535 -0.0999994
      vertex -16.6901 153.769 2
      vertex -16.6901 153.769 -0.0999994
    endloop
  endfacet
  facet normal 0.707104 0.707109 0
    outer loop
      vertex -18.427 151.122 -0.0999994
      vertex -18.1698 150.865 2
      vertex -18.1698 150.865 -0.0999994
    endloop
  endfacet
  facet normal 0.707096 0.707118 2.07294e-006
    outer loop
      vertex -18.1698 150.865 2
      vertex -18.427 151.122 -0.0999994
      vertex -18.5349 151.23 2
    endloop
  endfacet
  facet normal 0.707076 0.707138 0
    outer loop
      vertex -18.5349 151.23 2
      vertex -18.427 151.122 -0.0999994
      vertex -18.5349 151.23 -0.0999994
    endloop
  endfacet
  facet normal 0.156478 0.987681 0
    outer loop
      vertex -17.2443 150.557 -0.0999994
      vertex -17.2 150.55 2
      vertex -17.2 150.55 -0.0999994
    endloop
  endfacet
  facet normal 0.156421 0.98769 1.2227e-006
    outer loop
      vertex -17.2 150.55 2
      vertex -17.2443 150.557 -0.0999994
      vertex -17.7099 150.631 2
    endloop
  endfacet
  facet normal 0.156416 0.987691 0
    outer loop
      vertex -17.7099 150.631 2
      vertex -17.2443 150.557 -0.0999994
      vertex -17.7099 150.631 -0.0999994
    endloop
  endfacet
  facet normal 0.987689 -0.156429 0
    outer loop
      vertex -18.85 152.2 2
      vertex -18.7692 152.71 -0.0999994
      vertex -18.7692 152.71 2
    endloop
  endfacet
  facet normal 0.987689 -0.156429 0
    outer loop
      vertex -18.7692 152.71 -0.0999994
      vertex -18.85 152.2 2
      vertex -18.85 152.2 -0.0999994
    endloop
  endfacet
  facet normal 0.707104 -0.707109 0
    outer loop
      vertex -18.1698 153.535 2
      vertex -18.427 153.278 -0.0999994
      vertex -18.1698 153.535 -0.0999994
    endloop
  endfacet
  facet normal 0.70711 -0.707103 -1.54728e-006
    outer loop
      vertex -18.5349 153.17 2
      vertex -18.427 153.278 -0.0999994
      vertex -18.1698 153.535 2
    endloop
  endfacet
  facet normal 0.707126 -0.707088 0
    outer loop
      vertex -18.427 153.278 -0.0999994
      vertex -18.5349 153.17 2
      vertex -18.5349 153.17 -0.0999994
    endloop
  endfacet
  facet normal 0.891004 -0.453996 0
    outer loop
      vertex -18.7692 152.71 2
      vertex -18.5349 153.17 -0.0999994
      vertex -18.5349 153.17 2
    endloop
  endfacet
  facet normal 0.891004 -0.453996 0
    outer loop
      vertex -18.5349 153.17 -0.0999994
      vertex -18.7692 152.71 2
      vertex -18.7692 152.71 -0.0999994
    endloop
  endfacet
  facet normal 0.454005 0.890999 -0
    outer loop
      vertex -17.7099 150.631 -0.0999994
      vertex -18.1698 150.865 2
      vertex -17.7099 150.631 2
    endloop
  endfacet
  facet normal 0.454005 0.890999 0
    outer loop
      vertex -18.1698 150.865 2
      vertex -17.7099 150.631 -0.0999994
      vertex -18.1698 150.865 -0.0999994
    endloop
  endfacet
endsolid OpenSCAD_Model
