solid OpenSCAD_Model
  facet normal 0 1 -0
    outer loop
      vertex 18.74 158.9 -0.0999985
      vertex -18.74 158.9 2
      vertex 18.74 158.9 2
    endloop
  endfacet
  facet normal 0 1 0
    outer loop
      vertex -18.74 158.9 2
      vertex 18.74 158.9 -0.0999985
      vertex -18.74 158.9 -0.0999994
    endloop
  endfacet
  facet normal -0.156435 -0.987688 0
    outer loop
      vertex -19.667 -6.35317 -0.0999994
      vertex -18.74 -6.5 2
      vertex -19.667 -6.35317 2
    endloop
  endfacet
  facet normal -0.156435 -0.987688 -0
    outer loop
      vertex -18.74 -6.5 2
      vertex -19.667 -6.35317 -0.0999994
      vertex -18.74 -6.5 -0.0999994
    endloop
  endfacet
  facet normal 2.35232e-008 1.7414e-008 -1
    outer loop
      vertex 16.4702 -0.865122 -0.0999986
      vertex -16.4702 -0.865122 -0.0999994
      vertex 16.9301 -0.630756 -0.0999986
    endloop
  endfacet
  facet normal 2.35029e-008 -3.7224e-009 -1
    outer loop
      vertex 16.9301 153.031 -0.0999986
      vertex -15.8708 154.09 -0.0999994
      vertex -15.79 154.6 -0.0999994
    endloop
  endfacet
  facet normal 2.35442e-008 1.44177e-008 -1
    outer loop
      vertex -16.9301 -0.630756 -0.0999994
      vertex 16.9301 -0.630756 -0.0999986
      vertex -16.4702 -0.865122 -0.0999994
    endloop
  endfacet
  facet normal 2.37554e-008 4.09413e-009 -1
    outer loop
      vertex 16.9301 153.031 -0.0999986
      vertex -16.1051 153.63 -0.0999994
      vertex -15.8708 154.09 -0.0999994
    endloop
  endfacet
  facet normal 2.35442e-008 0 -1
    outer loop
      vertex 16.9301 -0.630756 -0.0999986
      vertex -16.9301 -0.630756 -0.0999994
      vertex 16.9301 153.031 -0.0999986
    endloop
  endfacet
  facet normal 2.36228e-008 -3.21204e-009 -1
    outer loop
      vertex 16.9301 153.031 -0.0999986
      vertex -16.4702 153.265 -0.0999994
      vertex -16.1051 153.63 -0.0999994
    endloop
  endfacet
  facet normal 2.35442e-008 0 -1
    outer loop
      vertex -16.9301 153.031 -0.0999994
      vertex 16.9301 153.031 -0.0999986
      vertex -16.9301 -0.630756 -0.0999994
    endloop
  endfacet
  facet normal 2.35442e-008 -1.4418e-008 -1
    outer loop
      vertex 16.9301 153.031 -0.0999986
      vertex -16.9301 153.031 -0.0999994
      vertex -16.4702 153.265 -0.0999994
    endloop
  endfacet
  facet normal 2.92251e-008 0 -1
    outer loop
      vertex -17.44 -0.549999 -0.0999994
      vertex -16.9301 153.031 -0.0999994
      vertex -16.9301 -0.630756 -0.0999994
    endloop
  endfacet
  facet normal 2.92251e-008 0 -1
    outer loop
      vertex -17.44 -0.549999 -0.0999994
      vertex -17.44 152.95 -0.0999994
      vertex -16.9301 153.031 -0.0999994
    endloop
  endfacet
  facet normal 2.92248e-008 0 -1
    outer loop
      vertex -17.9499 -0.630756 -0.0999994
      vertex -17.44 152.95 -0.0999994
      vertex -17.44 -0.549999 -0.0999994
    endloop
  endfacet
  facet normal 2.92248e-008 0 -1
    outer loop
      vertex -17.9499 -0.630756 -0.0999994
      vertex -17.9499 153.031 -0.0999994
      vertex -17.44 152.95 -0.0999994
    endloop
  endfacet
  facet normal 1.61981e-008 0 -1
    outer loop
      vertex -18.4098 -0.865122 -0.0999994
      vertex -17.9499 153.031 -0.0999994
      vertex -17.9499 -0.630756 -0.0999994
    endloop
  endfacet
  facet normal 1.61981e-008 0 -1
    outer loop
      vertex -18.4098 -0.865122 -0.0999994
      vertex -18.4098 153.265 -0.0999994
      vertex -17.9499 153.031 -0.0999994
    endloop
  endfacet
  facet normal 2.2567e-008 0 -1
    outer loop
      vertex -18.74 -1.19528 -0.0999994
      vertex -18.4098 153.265 -0.0999994
      vertex -18.4098 -0.865122 -0.0999994
    endloop
  endfacet
  facet normal 2.2567e-008 0 -1
    outer loop
      vertex -18.4098 153.265 -0.0999994
      vertex -18.74 -1.19528 -0.0999994
      vertex -18.74 153.595 -0.0999994
    endloop
  endfacet
  facet normal 2.34642e-008 -4.24249e-009 -1
    outer loop
      vertex 16.1051 153.63 -0.0999986
      vertex -15.79 154.6 -0.0999994
      vertex 15.8708 154.09 -0.0999986
    endloop
  endfacet
  facet normal 2.35927e-008 3.73669e-009 -1
    outer loop
      vertex 15.8708 -2.70988 -0.0999986
      vertex -15.79 -2.2 -0.0999994
      vertex 15.79 -2.2 -0.0999986
    endloop
  endfacet
  facet normal 2.34727e-008 -4.23812e-009 -1
    outer loop
      vertex -15.8708 -2.70988 -0.0999994
      vertex 15.8708 -2.70988 -0.0999986
      vertex 16.1051 -3.16985 -0.0999986
    endloop
  endfacet
  facet normal 2.32489e-008 2.83819e-009 -1
    outer loop
      vertex -18.74 -6.5 -0.0999994
      vertex 16.1051 -3.16985 -0.0999986
      vertex 16.4702 -3.53488 -0.0999986
    endloop
  endfacet
  facet normal 2.47514e-008 -1.50034e-008 -1
    outer loop
      vertex -18.74 -6.5 -0.0999994
      vertex 16.4702 -3.53488 -0.0999986
      vertex 16.9301 -3.76924 -0.0999986
    endloop
  endfacet
  facet normal 2.23833e-008 1.59296e-008 -1
    outer loop
      vertex -18.74 -6.5 -0.0999994
      vertex 16.9301 -3.76924 -0.0999986
      vertex 17.3053 -3.82866 -0.0999986
    endloop
  endfacet
  facet normal 2.34727e-008 -3.71768e-009 -1
    outer loop
      vertex 15.8708 -2.70988 -0.0999986
      vertex -15.8708 -2.70988 -0.0999994
      vertex -15.79 -2.2 -0.0999994
    endloop
  endfacet
  facet normal 2.35937e-008 4.17644e-009 -1
    outer loop
      vertex 16.1051 -3.16985 -0.0999986
      vertex -16.1051 -3.16985 -0.0999994
      vertex -15.8708 -2.70988 -0.0999994
    endloop
  endfacet
  facet normal 2.35937e-008 -7.69308e-010 -1
    outer loop
      vertex 16.1051 -3.16985 -0.0999986
      vertex -18.74 -6.5 -0.0999994
      vertex -16.1051 -3.16985 -0.0999994
    endloop
  endfacet
  facet normal 1.20331e-008 8.37769e-009 -1
    outer loop
      vertex -16.1051 -3.16985 -0.0999994
      vertex -18.74 -6.5 -0.0999994
      vertex -16.4702 -3.53488 -0.0999994
    endloop
  endfacet
  facet normal 1.18631e-008 8.50781e-009 -1
    outer loop
      vertex -16.4702 -3.53488 -0.0999994
      vertex -18.74 -6.5 -0.0999994
      vertex -16.9301 -3.76924 -0.0999994
    endloop
  endfacet
  facet normal 2.97558e-008 -3.35104e-009 -1
    outer loop
      vertex -16.9301 -3.76924 -0.0999994
      vertex -18.74 -6.5 -0.0999994
      vertex -17.44 -3.85 -0.0999994
    endloop
  endfacet
  facet normal 2.87706e-008 -2.86775e-009 -1
    outer loop
      vertex -18.74 -6.5 -0.0999994
      vertex -17.9499 -3.76924 -0.0999994
      vertex -17.44 -3.85 -0.0999994
    endloop
  endfacet
  facet normal 1.654e-008 6.71075e-010 -1
    outer loop
      vertex -18.74 -6.5 -0.0999994
      vertex -18.4098 -3.53488 -0.0999994
      vertex -17.9499 -3.76924 -0.0999994
    endloop
  endfacet
  facet normal 2.2567e-008 0 -1
    outer loop
      vertex -18.4098 -3.53488 -0.0999994
      vertex -18.74 -6.5 -0.0999994
      vertex -18.74 -3.20472 -0.0999994
    endloop
  endfacet
  facet normal -3.68247e-008 -7.76462e-008 -1
    outer loop
      vertex 18.4098 -0.865122 -0.0999986
      vertex 21.74 -3.5 -0.0999985
      vertex 18.7749 -1.23015 -0.0999985
    endloop
  endfacet
  facet normal 1.66151e-008 1.19807e-008 -1
    outer loop
      vertex 21.74 155.9 -0.0999985
      vertex 19.0092 154.09 -0.0999985
      vertex 19.09 154.6 -0.0999985
    endloop
  endfacet
  facet normal 2.46104e-008 0 -1
    outer loop
      vertex 21.74 -3.5 -0.0999985
      vertex 18.4098 -0.865122 -0.0999986
      vertex 21.74 155.9 -0.0999985
    endloop
  endfacet
  facet normal 3.70765e-008 -1.88917e-008 -1
    outer loop
      vertex 21.74 155.9 -0.0999985
      vertex 18.7749 153.63 -0.0999985
      vertex 19.0092 154.09 -0.0999985
    endloop
  endfacet
  facet normal 2.46104e-008 0 -1
    outer loop
      vertex 18.4098 153.265 -0.0999986
      vertex 21.74 155.9 -0.0999985
      vertex 18.4098 -0.865122 -0.0999986
    endloop
  endfacet
  facet normal -3.6821e-008 7.76417e-008 -1
    outer loop
      vertex 21.74 155.9 -0.0999985
      vertex 18.4098 153.265 -0.0999986
      vertex 18.7749 153.63 -0.0999985
    endloop
  endfacet
  facet normal 1.61981e-008 0 -1
    outer loop
      vertex 17.9499 -0.630756 -0.0999986
      vertex 18.4098 153.265 -0.0999986
      vertex 18.4098 -0.865122 -0.0999986
    endloop
  endfacet
  facet normal 1.61981e-008 0 -1
    outer loop
      vertex 17.9499 -0.630756 -0.0999986
      vertex 17.9499 153.031 -0.0999986
      vertex 18.4098 153.265 -0.0999986
    endloop
  endfacet
  facet normal 2.92248e-008 0 -1
    outer loop
      vertex 17.44 -0.549999 -0.0999986
      vertex 17.9499 153.031 -0.0999986
      vertex 17.9499 -0.630756 -0.0999986
    endloop
  endfacet
  facet normal 2.92248e-008 0 -1
    outer loop
      vertex 17.44 -0.549999 -0.0999986
      vertex 17.44 152.95 -0.0999986
      vertex 17.9499 153.031 -0.0999986
    endloop
  endfacet
  facet normal 1.46125e-008 0 -1
    outer loop
      vertex 16.9301 -0.630756 -0.0999986
      vertex 17.44 152.95 -0.0999986
      vertex 17.44 -0.549999 -0.0999986
    endloop
  endfacet
  facet normal 1.46125e-008 0 -1
    outer loop
      vertex 16.9301 -0.630756 -0.0999986
      vertex 16.9301 153.031 -0.0999986
      vertex 17.44 152.95 -0.0999986
    endloop
  endfacet
  facet normal 2.35937e-008 -4.17644e-009 -1
    outer loop
      vertex -16.1051 -1.23015 -0.0999994
      vertex 16.1051 -1.23015 -0.0999986
      vertex -15.8708 -1.69012 -0.0999994
    endloop
  endfacet
  facet normal 2.35937e-008 -3.18296e-009 -1
    outer loop
      vertex 16.1051 -1.23015 -0.0999986
      vertex -16.1051 -1.23015 -0.0999994
      vertex 16.4702 -0.865122 -0.0999986
    endloop
  endfacet
  facet normal 2.34727e-008 4.23812e-009 -1
    outer loop
      vertex 15.8708 -1.69012 -0.0999986
      vertex -15.8708 -1.69012 -0.0999994
      vertex 16.1051 -1.23015 -0.0999986
    endloop
  endfacet
  facet normal 2.35232e-008 3.11242e-009 -1
    outer loop
      vertex -16.4702 -0.865122 -0.0999994
      vertex 16.4702 -0.865122 -0.0999986
      vertex -16.1051 -1.23015 -0.0999994
    endloop
  endfacet
  facet normal 2.34727e-008 3.71768e-009 -1
    outer loop
      vertex -15.8708 -1.69012 -0.0999994
      vertex 15.8708 -1.69012 -0.0999986
      vertex -15.79 -2.2 -0.0999994
    endloop
  endfacet
  facet normal 2.27759e-008 -1.8881e-008 -1
    outer loop
      vertex 16.9301 153.031 -0.0999986
      vertex -15.79 154.6 -0.0999994
      vertex 16.4702 153.265 -0.0999986
    endloop
  endfacet
  facet normal 2.35927e-008 -3.73669e-009 -1
    outer loop
      vertex -15.79 -2.2 -0.0999994
      vertex 15.8708 -1.69012 -0.0999986
      vertex 15.79 -2.2 -0.0999986
    endloop
  endfacet
  facet normal 2.3693e-008 3.28224e-009 -1
    outer loop
      vertex 16.4702 153.265 -0.0999986
      vertex -15.79 154.6 -0.0999994
      vertex 16.1051 153.63 -0.0999986
    endloop
  endfacet
  facet normal 1.66149e-008 -1.19809e-008 -1
    outer loop
      vertex 19.0092 -1.69012 -0.0999985
      vertex 21.74 -3.5 -0.0999985
      vertex 19.09 -2.2 -0.0999985
    endloop
  endfacet
  facet normal 2.75223e-008 1.02534e-008 -1
    outer loop
      vertex 21.74 -3.5 -0.0999985
      vertex 19.0092 -2.70988 -0.0999985
      vertex 19.09 -2.2 -0.0999985
    endloop
  endfacet
  facet normal 2.14005e-008 -1.09041e-008 -1
    outer loop
      vertex 21.74 -3.5 -0.0999985
      vertex 18.7749 -3.16985 -0.0999985
      vertex 19.0092 -2.70988 -0.0999985
    endloop
  endfacet
  facet normal 2.44388e-008 1.63827e-008 -1
    outer loop
      vertex 21.74 -3.5 -0.0999985
      vertex 18.4098 -3.53488 -0.0999986
      vertex 18.7749 -3.16985 -0.0999985
    endloop
  endfacet
  facet normal 2.47869e-008 -1.68565e-008 -1
    outer loop
      vertex 21.74 -3.5 -0.0999985
      vertex 17.9499 -3.76924 -0.0999986
      vertex 18.4098 -3.53488 -0.0999986
    endloop
  endfacet
  facet normal 4.27752e-008 -2.70076e-007 -1
    outer loop
      vertex 17.9499 -3.76924 -0.0999986
      vertex 21.74 -3.5 -0.0999985
      vertex 17.8117 -3.79113 -0.0999986
    endloop
  endfacet
  facet normal 3.70763e-008 1.88913e-008 -1
    outer loop
      vertex 18.7749 -1.23015 -0.0999985
      vertex 21.74 -3.5 -0.0999985
      vertex 19.0092 -1.69012 -0.0999985
    endloop
  endfacet
  facet normal 2.75223e-008 -1.02535e-008 -1
    outer loop
      vertex 19.0092 155.11 -0.0999985
      vertex 21.74 155.9 -0.0999985
      vertex 19.09 154.6 -0.0999985
    endloop
  endfacet
  facet normal 2.14005e-008 1.09043e-008 -1
    outer loop
      vertex 18.7749 155.57 -0.0999985
      vertex 21.74 155.9 -0.0999985
      vertex 19.0092 155.11 -0.0999985
    endloop
  endfacet
  facet normal 2.44388e-008 -1.63825e-008 -1
    outer loop
      vertex 18.4098 155.935 -0.0999986
      vertex 21.74 155.9 -0.0999985
      vertex 18.7749 155.57 -0.0999985
    endloop
  endfacet
  facet normal 2.4787e-008 1.68559e-008 -1
    outer loop
      vertex 17.9499 156.169 -0.0999986
      vertex 21.74 155.9 -0.0999985
      vertex 18.4098 155.935 -0.0999986
    endloop
  endfacet
  facet normal 4.27839e-008 2.70185e-007 -1
    outer loop
      vertex 21.74 155.9 -0.0999985
      vertex 17.9499 156.169 -0.0999986
      vertex 17.8117 156.191 -0.0999986
    endloop
  endfacet
  facet normal 2.35927e-008 3.73662e-009 -1
    outer loop
      vertex 15.8708 154.09 -0.0999986
      vertex -15.79 154.6 -0.0999994
      vertex 15.79 154.6 -0.0999986
    endloop
  endfacet
  facet normal 2.35927e-008 -3.73673e-009 -1
    outer loop
      vertex 15.79 154.6 -0.0999986
      vertex -15.79 154.6 -0.0999994
      vertex 15.8708 155.11 -0.0999986
    endloop
  endfacet
  facet normal 2.34727e-008 3.71772e-009 -1
    outer loop
      vertex -15.8708 155.11 -0.0999994
      vertex 15.8708 155.11 -0.0999986
      vertex -15.79 154.6 -0.0999994
    endloop
  endfacet
  facet normal 2.34727e-008 4.23818e-009 -1
    outer loop
      vertex 15.8708 155.11 -0.0999986
      vertex -15.8708 155.11 -0.0999994
      vertex 16.1051 155.57 -0.0999986
    endloop
  endfacet
  facet normal 2.35937e-008 -4.17651e-009 -1
    outer loop
      vertex -16.1051 155.57 -0.0999994
      vertex 16.1051 155.57 -0.0999986
      vertex -15.8708 155.11 -0.0999994
    endloop
  endfacet
  facet normal 2.35937e-008 7.69308e-010 -1
    outer loop
      vertex -18.74 158.9 -0.0999994
      vertex 16.1051 155.57 -0.0999986
      vertex -16.1051 155.57 -0.0999994
    endloop
  endfacet
  facet normal 2.32489e-008 -2.83817e-009 -1
    outer loop
      vertex 16.1051 155.57 -0.0999986
      vertex -18.74 158.9 -0.0999994
      vertex 16.4702 155.935 -0.0999986
    endloop
  endfacet
  facet normal 2.47514e-008 1.50029e-008 -1
    outer loop
      vertex 16.4702 155.935 -0.0999986
      vertex -18.74 158.9 -0.0999994
      vertex 16.9301 156.169 -0.0999986
    endloop
  endfacet
  facet normal 1.20326e-008 -8.37802e-009 -1
    outer loop
      vertex -18.74 158.9 -0.0999994
      vertex -16.1051 155.57 -0.0999994
      vertex -16.4702 155.935 -0.0999994
    endloop
  endfacet
  facet normal 1.18628e-008 -8.50805e-009 -1
    outer loop
      vertex -18.74 158.9 -0.0999994
      vertex -16.4702 155.935 -0.0999994
      vertex -16.9301 156.169 -0.0999994
    endloop
  endfacet
  facet normal 2.97558e-008 3.35103e-009 -1
    outer loop
      vertex -18.74 158.9 -0.0999994
      vertex -16.9301 156.169 -0.0999994
      vertex -17.44 156.25 -0.0999994
    endloop
  endfacet
  facet normal 2.23832e-008 -1.59313e-008 -1
    outer loop
      vertex 16.9301 156.169 -0.0999986
      vertex -18.74 158.9 -0.0999994
      vertex 17.3053 156.229 -0.0999986
    endloop
  endfacet
  facet normal 2.87707e-008 2.86777e-009 -1
    outer loop
      vertex -17.9499 156.169 -0.0999994
      vertex -18.74 158.9 -0.0999994
      vertex -17.44 156.25 -0.0999994
    endloop
  endfacet
  facet normal 1.654e-008 -6.71075e-010 -1
    outer loop
      vertex -18.4098 155.935 -0.0999994
      vertex -18.74 158.9 -0.0999994
      vertex -17.9499 156.169 -0.0999994
    endloop
  endfacet
  facet normal 2.2567e-008 0 -1
    outer loop
      vertex -18.74 158.9 -0.0999994
      vertex -18.4098 155.935 -0.0999994
      vertex -18.74 155.605 -0.0999994
    endloop
  endfacet
  facet normal 2.54449e-008 1.60664e-007 -1
    outer loop
      vertex 19.667 158.753 -0.0999985
      vertex -18.74 158.9 -0.0999994
      vertex 18.74 158.9 -0.0999985
    endloop
  endfacet
  facet normal -7.71179e-007 0 1
    outer loop
      vertex -21.74 155.9 2
      vertex -20.5034 -5.92705 2
      vertex -20.5034 158.327 2
    endloop
  endfacet
  facet normal -7.71179e-007 0 1
    outer loop
      vertex -20.5034 -5.92705 2
      vertex -21.74 155.9 2
      vertex -21.74 -3.5 2
    endloop
  endfacet
  facet normal -0.987689 0.156432 0
    outer loop
      vertex -21.74 155.9 -0.0999994
      vertex -21.5932 156.827 2
      vertex -21.5932 156.827 -0.0999994
    endloop
  endfacet
  facet normal -0.987689 0.156432 0
    outer loop
      vertex -21.5932 156.827 2
      vertex -21.74 155.9 -0.0999994
      vertex -21.74 155.9 2
    endloop
  endfacet
  facet normal 2.42808e-008 -1.23717e-008 -1
    outer loop
      vertex 21.167 -5.26336 -0.0999985
      vertex -18.74 -6.5 -0.0999994
      vertex 21.5932 -4.42705 -0.0999985
    endloop
  endfacet
  facet normal 0.987688 -0.156434 0
    outer loop
      vertex 21.5932 -4.42705 2
      vertex 21.74 -3.5 -0.0999985
      vertex 21.74 -3.5 2
    endloop
  endfacet
  facet normal 0.987688 -0.156434 0
    outer loop
      vertex 21.74 -3.5 -0.0999985
      vertex 21.5932 -4.42705 2
      vertex 21.5932 -4.42705 -0.0999985
    endloop
  endfacet
  facet normal 0.156424 0.98769 -0
    outer loop
      vertex 19.667 158.753 -0.0999985
      vertex 18.74 158.9 2
      vertex 19.667 158.753 2
    endloop
  endfacet
  facet normal 0.156424 0.98769 0
    outer loop
      vertex 18.74 158.9 2
      vertex 19.667 158.753 -0.0999985
      vertex 18.74 158.9 -0.0999985
    endloop
  endfacet
  facet normal -1 0 0
    outer loop
      vertex -21.74 -3.5 -0.0999994
      vertex -21.74 155.9 2
      vertex -21.74 155.9 -0.0999994
    endloop
  endfacet
  facet normal -1 -0 0
    outer loop
      vertex -21.74 155.9 2
      vertex -21.74 -3.5 -0.0999994
      vertex -21.74 -3.5 2
    endloop
  endfacet
  facet normal 0.891006 -0.453991 0
    outer loop
      vertex 21.167 -5.26336 2
      vertex 21.5932 -4.42705 -0.0999985
      vertex 21.5932 -4.42705 2
    endloop
  endfacet
  facet normal 0.891006 -0.453991 0
    outer loop
      vertex 21.5932 -4.42705 -0.0999985
      vertex 21.167 -5.26336 2
      vertex 21.167 -5.26336 -0.0999985
    endloop
  endfacet
  facet normal -0.891005 0.453993 0
    outer loop
      vertex -21.5932 156.827 -0.0999994
      vertex -21.167 157.663 2
      vertex -21.167 157.663 -0.0999994
    endloop
  endfacet
  facet normal -0.891005 0.453993 0
    outer loop
      vertex -21.167 157.663 2
      vertex -21.5932 156.827 -0.0999994
      vertex -21.5932 156.827 2
    endloop
  endfacet
  facet normal -0.156424 0.98769 0
    outer loop
      vertex -18.74 158.9 -0.0999994
      vertex -19.667 158.753 2
      vertex -18.74 158.9 2
    endloop
  endfacet
  facet normal -0.156424 0.98769 0
    outer loop
      vertex -19.667 158.753 2
      vertex -18.74 158.9 -0.0999994
      vertex -19.667 158.753 -0.0999994
    endloop
  endfacet
  facet normal 1 -0 0
    outer loop
      vertex 21.74 -3.5 2
      vertex 21.74 155.9 -0.0999985
      vertex 21.74 155.9 2
    endloop
  endfacet
  facet normal 1 0 0
    outer loop
      vertex 21.74 155.9 -0.0999985
      vertex 21.74 -3.5 2
      vertex 21.74 -3.5 -0.0999985
    endloop
  endfacet
  facet normal 0 -1 0
    outer loop
      vertex -18.74 -6.5 2
      vertex 18.74 -6.5 -0.0999985
      vertex 18.74 -6.5 2
    endloop
  endfacet
  facet normal -0 -1 0
    outer loop
      vertex 18.74 -6.5 -0.0999985
      vertex -18.74 -6.5 2
      vertex -18.74 -6.5 -0.0999994
    endloop
  endfacet
  facet normal -0.987688 -0.156434 0
    outer loop
      vertex -21.5932 -4.42705 -0.0999994
      vertex -21.74 -3.5 2
      vertex -21.74 -3.5 -0.0999994
    endloop
  endfacet
  facet normal -0.987688 -0.156434 0
    outer loop
      vertex -21.74 -3.5 2
      vertex -21.5932 -4.42705 -0.0999994
      vertex -21.5932 -4.42705 2
    endloop
  endfacet
  facet normal 0 0 -1
    outer loop
      vertex -19.667 -6.35317 -0.0999994
      vertex -18.74 -3.20472 -0.0999994
      vertex -18.74 -6.5 -0.0999994
    endloop
  endfacet
  facet normal 0 0 -1
    outer loop
      vertex -20.5034 -5.92705 -0.0999994
      vertex -18.74 -3.20472 -0.0999994
      vertex -19.667 -6.35317 -0.0999994
    endloop
  endfacet
  facet normal 0 0 -1
    outer loop
      vertex -21.167 -5.26336 -0.0999994
      vertex -18.74 -3.20472 -0.0999994
      vertex -20.5034 -5.92705 -0.0999994
    endloop
  endfacet
  facet normal 0 0 -1
    outer loop
      vertex -21.5932 -4.42705 -0.0999994
      vertex -18.7749 -3.16985 -0.0999994
      vertex -21.167 -5.26336 -0.0999994
    endloop
  endfacet
  facet normal -0 0 -1
    outer loop
      vertex -18.74 -3.20472 -0.0999994
      vertex -21.167 -5.26336 -0.0999994
      vertex -18.7749 -3.16985 -0.0999994
    endloop
  endfacet
  facet normal 0 0 -1
    outer loop
      vertex -18.7749 -1.23015 -0.0999994
      vertex -18.74 153.595 -0.0999994
      vertex -18.74 -1.19528 -0.0999994
    endloop
  endfacet
  facet normal 0 0 -1
    outer loop
      vertex -18.7749 -1.23015 -0.0999994
      vertex -18.7749 153.63 -0.0999994
      vertex -18.74 153.595 -0.0999994
    endloop
  endfacet
  facet normal 0 0 -1
    outer loop
      vertex -19.0092 -1.69012 -0.0999994
      vertex -18.7749 153.63 -0.0999994
      vertex -18.7749 -1.23015 -0.0999994
    endloop
  endfacet
  facet normal 0 0 -1
    outer loop
      vertex -19.0092 -1.69012 -0.0999994
      vertex -19.0092 154.09 -0.0999994
      vertex -18.7749 153.63 -0.0999994
    endloop
  endfacet
  facet normal 0 0 -1
    outer loop
      vertex -19.09 -2.2 -0.0999994
      vertex -19.0092 154.09 -0.0999994
      vertex -19.0092 -1.69012 -0.0999994
    endloop
  endfacet
  facet normal -0 0 -1
    outer loop
      vertex -19.0092 154.09 -0.0999994
      vertex -19.09 -2.2 -0.0999994
      vertex -19.09 154.6 -0.0999994
    endloop
  endfacet
  facet normal 0 0 -1
    outer loop
      vertex -21.167 157.663 -0.0999994
      vertex -18.74 155.605 -0.0999994
      vertex -18.7749 155.57 -0.0999994
    endloop
  endfacet
  facet normal 0 0 -1
    outer loop
      vertex -21.74 155.9 -0.0999994
      vertex -18.7749 155.57 -0.0999994
      vertex -19.0092 155.11 -0.0999994
    endloop
  endfacet
  facet normal 0 0 -1
    outer loop
      vertex -21.74 155.9 -0.0999994
      vertex -19.0092 155.11 -0.0999994
      vertex -19.09 154.6 -0.0999994
    endloop
  endfacet
  facet normal 0 0 -1
    outer loop
      vertex -18.74 155.605 -0.0999994
      vertex -19.667 158.753 -0.0999994
      vertex -18.74 158.9 -0.0999994
    endloop
  endfacet
  facet normal -0 0 -1
    outer loop
      vertex -19.09 -2.2 -0.0999994
      vertex -21.74 -3.5 -0.0999994
      vertex -19.09 154.6 -0.0999994
    endloop
  endfacet
  facet normal 0 0 -1
    outer loop
      vertex -21.74 -3.5 -0.0999994
      vertex -18.7749 -3.16985 -0.0999994
      vertex -21.5932 -4.42705 -0.0999994
    endloop
  endfacet
  facet normal 0 0 -1
    outer loop
      vertex -21.74 155.9 -0.0999994
      vertex -19.09 154.6 -0.0999994
      vertex -21.74 -3.5 -0.0999994
    endloop
  endfacet
  facet normal -0 0 -1
    outer loop
      vertex -18.7749 -3.16985 -0.0999994
      vertex -21.74 -3.5 -0.0999994
      vertex -19.0092 -2.70988 -0.0999994
    endloop
  endfacet
  facet normal 0 0 -1
    outer loop
      vertex -18.7749 155.57 -0.0999994
      vertex -21.74 155.9 -0.0999994
      vertex -21.5932 156.827 -0.0999994
    endloop
  endfacet
  facet normal -0 0 -1
    outer loop
      vertex -19.0092 -2.70988 -0.0999994
      vertex -21.74 -3.5 -0.0999994
      vertex -19.09 -2.2 -0.0999994
    endloop
  endfacet
  facet normal 0 0 -1
    outer loop
      vertex -18.74 155.605 -0.0999994
      vertex -20.5034 158.327 -0.0999994
      vertex -19.667 158.753 -0.0999994
    endloop
  endfacet
  facet normal 0 0 -1
    outer loop
      vertex -18.74 155.605 -0.0999994
      vertex -21.167 157.663 -0.0999994
      vertex -20.5034 158.327 -0.0999994
    endloop
  endfacet
  facet normal 0 0 -1
    outer loop
      vertex -18.7749 155.57 -0.0999994
      vertex -21.5932 156.827 -0.0999994
      vertex -21.167 157.663 -0.0999994
    endloop
  endfacet
  facet normal 2.46616e-008 2.46616e-008 -1
    outer loop
      vertex 21.167 157.663 -0.0999985
      vertex -18.74 158.9 -0.0999994
      vertex 20.5034 158.327 -0.0999985
    endloop
  endfacet
  facet normal 0.707107 0.707107 0
    outer loop
      vertex 21.167 157.663 2
      vertex 20.5034 158.327 -0.0999985
      vertex 20.5034 158.327 2
    endloop
  endfacet
  facet normal 0.707107 0.707107 0
    outer loop
      vertex 20.5034 158.327 -0.0999985
      vertex 21.167 157.663 2
      vertex 21.167 157.663 -0.0999985
    endloop
  endfacet
  facet normal 2.50184e-008 -4.91013e-008 -1
    outer loop
      vertex 19.667 -6.35317 -0.0999985
      vertex -18.74 -6.5 -0.0999994
      vertex 20.5034 -5.92705 -0.0999985
    endloop
  endfacet
  facet normal -0.453989 0.891007 0
    outer loop
      vertex -19.667 158.753 -0.0999994
      vertex -20.5034 158.327 2
      vertex -19.667 158.753 2
    endloop
  endfacet
  facet normal -0.453989 0.891007 0
    outer loop
      vertex -20.5034 158.327 2
      vertex -19.667 158.753 -0.0999994
      vertex -20.5034 158.327 -0.0999994
    endloop
  endfacet
  facet normal 0 0 1
    outer loop
      vertex 16.4702 153.265 2
      vertex -16.4702 153.265 2
      vertex 16.9301 153.031 2
    endloop
  endfacet
  facet normal 0 0 1
    outer loop
      vertex 16.9301 -0.630756 2
      vertex -15.8708 -1.69012 2
      vertex -15.79 -2.2 2
    endloop
  endfacet
  facet normal 0 0 1
    outer loop
      vertex -16.9301 153.031 2
      vertex 16.9301 153.031 2
      vertex -16.4702 153.265 2
    endloop
  endfacet
  facet normal 0 0 1
    outer loop
      vertex 16.9301 -0.630756 2
      vertex -16.1051 -1.23015 2
      vertex -15.8708 -1.69012 2
    endloop
  endfacet
  facet normal 0 0 1
    outer loop
      vertex 16.9301 153.031 2
      vertex -16.9301 153.031 2
      vertex 16.9301 -0.630756 2
    endloop
  endfacet
  facet normal 0 0 1
    outer loop
      vertex 16.9301 -0.630756 2
      vertex -16.4702 -0.865122 2
      vertex -16.1051 -1.23015 2
    endloop
  endfacet
  facet normal 0 0 1
    outer loop
      vertex -16.9301 -0.630756 2
      vertex 16.9301 -0.630756 2
      vertex -16.9301 153.031 2
    endloop
  endfacet
  facet normal 0 0 1
    outer loop
      vertex 16.9301 -0.630756 2
      vertex -16.9301 -0.630756 2
      vertex -16.4702 -0.865122 2
    endloop
  endfacet
  facet normal -0 0 1
    outer loop
      vertex -17.44 152.95 2
      vertex -16.9301 -0.630756 2
      vertex -16.9301 153.031 2
    endloop
  endfacet
  facet normal 0 0 1
    outer loop
      vertex -17.44 152.95 2
      vertex -17.44 -0.549999 2
      vertex -16.9301 -0.630756 2
    endloop
  endfacet
  facet normal 0 0 1
    outer loop
      vertex -17.9499 153.031 2
      vertex -17.44 -0.549999 2
      vertex -17.44 152.95 2
    endloop
  endfacet
  facet normal 0 0 1
    outer loop
      vertex -17.9499 153.031 2
      vertex -17.9499 -0.630756 2
      vertex -17.44 -0.549999 2
    endloop
  endfacet
  facet normal 0 0 1
    outer loop
      vertex -18.4098 153.265 2
      vertex -17.9499 -0.630756 2
      vertex -17.9499 153.031 2
    endloop
  endfacet
  facet normal 0 0 1
    outer loop
      vertex -18.4098 153.265 2
      vertex -18.4098 -0.865122 2
      vertex -17.9499 -0.630756 2
    endloop
  endfacet
  facet normal 0 0 1
    outer loop
      vertex -18.7749 153.63 2
      vertex -18.4098 -0.865122 2
      vertex -18.4098 153.265 2
    endloop
  endfacet
  facet normal 0 0 1
    outer loop
      vertex -18.7749 153.63 2
      vertex -18.7749 -1.23015 2
      vertex -18.4098 -0.865122 2
    endloop
  endfacet
  facet normal 0 0 1
    outer loop
      vertex -19.0092 154.09 2
      vertex -18.7749 -1.23015 2
      vertex -18.7749 153.63 2
    endloop
  endfacet
  facet normal 0 0 1
    outer loop
      vertex -19.0092 154.09 2
      vertex -19.0092 -1.69012 2
      vertex -18.7749 -1.23015 2
    endloop
  endfacet
  facet normal 0 0 1
    outer loop
      vertex -20.5034 158.327 2
      vertex -19.0092 154.09 2
      vertex -19.09 154.6 2
    endloop
  endfacet
  facet normal 0 0 1
    outer loop
      vertex -19.0092 154.09 2
      vertex -20.5034 158.327 2
      vertex -19.0092 -1.69012 2
    endloop
  endfacet
  facet normal 0 0 1
    outer loop
      vertex 18.4098 153.265 2
      vertex 21.74 155.9 2
      vertex 18.7749 153.63 2
    endloop
  endfacet
  facet normal 0 0 1
    outer loop
      vertex 21.74 -3.5 2
      vertex 19.0092 -1.69012 2
      vertex 19.09 -2.2 2
    endloop
  endfacet
  facet normal 0 0 1
    outer loop
      vertex 21.74 155.9 2
      vertex 18.4098 153.265 2
      vertex 21.74 -3.5 2
    endloop
  endfacet
  facet normal 0 0 1
    outer loop
      vertex 21.74 -3.5 2
      vertex 18.7749 -1.23015 2
      vertex 19.0092 -1.69012 2
    endloop
  endfacet
  facet normal -0 0 1
    outer loop
      vertex 18.4098 -0.865122 2
      vertex 21.74 -3.5 2
      vertex 18.4098 153.265 2
    endloop
  endfacet
  facet normal 0 0 1
    outer loop
      vertex 21.74 -3.5 2
      vertex 18.4098 -0.865122 2
      vertex 18.7749 -1.23015 2
    endloop
  endfacet
  facet normal -0 0 1
    outer loop
      vertex 17.9499 153.031 2
      vertex 18.4098 -0.865122 2
      vertex 18.4098 153.265 2
    endloop
  endfacet
  facet normal 0 0 1
    outer loop
      vertex 17.9499 153.031 2
      vertex 17.9499 -0.630756 2
      vertex 18.4098 -0.865122 2
    endloop
  endfacet
  facet normal -0 0 1
    outer loop
      vertex 17.44 152.95 2
      vertex 17.9499 -0.630756 2
      vertex 17.9499 153.031 2
    endloop
  endfacet
  facet normal 0 0 1
    outer loop
      vertex 17.44 152.95 2
      vertex 17.44 -0.549999 2
      vertex 17.9499 -0.630756 2
    endloop
  endfacet
  facet normal 0 0 1
    outer loop
      vertex 16.9301 153.031 2
      vertex 17.44 -0.549999 2
      vertex 17.44 152.95 2
    endloop
  endfacet
  facet normal 0 0 1
    outer loop
      vertex 16.9301 153.031 2
      vertex 16.9301 -0.630756 2
      vertex 17.44 -0.549999 2
    endloop
  endfacet
  facet normal 0 0 1
    outer loop
      vertex -16.1051 153.63 2
      vertex 16.1051 153.63 2
      vertex -15.8708 154.09 2
    endloop
  endfacet
  facet normal 0 0 1
    outer loop
      vertex 16.1051 153.63 2
      vertex -16.1051 153.63 2
      vertex 16.4702 153.265 2
    endloop
  endfacet
  facet normal 0 0 1
    outer loop
      vertex 15.8708 154.09 2
      vertex -15.8708 154.09 2
      vertex 16.1051 153.63 2
    endloop
  endfacet
  facet normal 0 0 1
    outer loop
      vertex -16.4702 153.265 2
      vertex 16.4702 153.265 2
      vertex -16.1051 153.63 2
    endloop
  endfacet
  facet normal 0 0 1
    outer loop
      vertex -15.8708 154.09 2
      vertex 15.8708 154.09 2
      vertex -15.79 154.6 2
    endloop
  endfacet
  facet normal 0 0 1
    outer loop
      vertex 16.9301 -0.630756 2
      vertex -15.79 -2.2 2
      vertex 16.4702 -0.865122 2
    endloop
  endfacet
  facet normal -0 0 1
    outer loop
      vertex -15.79 154.6 2
      vertex 15.8708 154.09 2
      vertex 15.79 154.6 2
    endloop
  endfacet
  facet normal 0 0 1
    outer loop
      vertex 16.4702 -0.865122 2
      vertex -15.79 -2.2 2
      vertex 16.1051 -1.23015 2
    endloop
  endfacet
  facet normal 0 0 1
    outer loop
      vertex 18.7749 155.57 2
      vertex 21.74 155.9 2
      vertex 21.5932 156.827 2
    endloop
  endfacet
  facet normal 0 0 1
    outer loop
      vertex 19.0092 154.09 2
      vertex 21.74 155.9 2
      vertex 19.09 154.6 2
    endloop
  endfacet
  facet normal 0 0 1
    outer loop
      vertex 18.7749 155.57 2
      vertex 21.5932 156.827 2
      vertex 21.167 157.663 2
    endloop
  endfacet
  facet normal 0 0 1
    outer loop
      vertex 18.7749 153.63 2
      vertex 21.74 155.9 2
      vertex 19.0092 154.09 2
    endloop
  endfacet
  facet normal 0 0 1
    outer loop
      vertex 18.7749 155.57 2
      vertex 21.167 157.663 2
      vertex 20.5034 158.327 2
    endloop
  endfacet
  facet normal -0 0 1
    outer loop
      vertex 19.0092 -2.70988 2
      vertex 21.74 -3.5 2
      vertex 19.09 -2.2 2
    endloop
  endfacet
  facet normal 0 0 1
    outer loop
      vertex 18.4098 155.935 2
      vertex 20.5034 158.327 2
      vertex 19.667 158.753 2
    endloop
  endfacet
  facet normal -0 0 1
    outer loop
      vertex 18.7749 -3.16985 2
      vertex 21.74 -3.5 2
      vertex 19.0092 -2.70988 2
    endloop
  endfacet
  facet normal 0 0 1
    outer loop
      vertex 21.74 -3.5 2
      vertex 18.7749 -3.16985 2
      vertex 21.5932 -4.42705 2
    endloop
  endfacet
  facet normal 0 0 1
    outer loop
      vertex 21.74 155.9 2
      vertex 19.0092 155.11 2
      vertex 19.09 154.6 2
    endloop
  endfacet
  facet normal 0 0 1
    outer loop
      vertex 21.74 155.9 2
      vertex 18.7749 155.57 2
      vertex 19.0092 155.11 2
    endloop
  endfacet
  facet normal 0 0 1
    outer loop
      vertex 18.4098 155.935 2
      vertex 19.667 158.753 2
      vertex 18.74 158.9 2
    endloop
  endfacet
  facet normal 0 0 1
    outer loop
      vertex 20.5034 158.327 2
      vertex 18.4098 155.935 2
      vertex 18.7749 155.57 2
    endloop
  endfacet
  facet normal 0 0 1
    outer loop
      vertex 18.74 158.9 2
      vertex 17.9499 156.169 2
      vertex 18.4098 155.935 2
    endloop
  endfacet
  facet normal 0 0 1
    outer loop
      vertex 18.74 158.9 2
      vertex 17.44 156.25 2
      vertex 17.9499 156.169 2
    endloop
  endfacet
  facet normal 0 0 1
    outer loop
      vertex 18.74 158.9 2
      vertex 16.9301 156.169 2
      vertex 17.44 156.25 2
    endloop
  endfacet
  facet normal 0 0 1
    outer loop
      vertex 18.74 158.9 2
      vertex 16.4702 155.935 2
      vertex 16.9301 156.169 2
    endloop
  endfacet
  facet normal 0 0 1
    outer loop
      vertex 18.74 158.9 2
      vertex 16.1051 155.57 2
      vertex 16.4702 155.935 2
    endloop
  endfacet
  facet normal 0 0 1
    outer loop
      vertex 16.1051 -1.23015 2
      vertex -15.79 -2.2 2
      vertex 15.8708 -1.69012 2
    endloop
  endfacet
  facet normal 0 0 1
    outer loop
      vertex 15.8708 155.11 2
      vertex -15.79 154.6 2
      vertex 15.79 154.6 2
    endloop
  endfacet
  facet normal 0 0 1
    outer loop
      vertex -15.8708 155.11 2
      vertex 15.8708 155.11 2
      vertex 16.1051 155.57 2
    endloop
  endfacet
  facet normal 0 0 1
    outer loop
      vertex -16.1051 155.57 2
      vertex 16.1051 155.57 2
      vertex 18.74 158.9 2
    endloop
  endfacet
  facet normal 0 0 1
    outer loop
      vertex 15.8708 155.11 2
      vertex -15.8708 155.11 2
      vertex -15.79 154.6 2
    endloop
  endfacet
  facet normal 0 0 1
    outer loop
      vertex 16.1051 155.57 2
      vertex -16.1051 155.57 2
      vertex -15.8708 155.11 2
    endloop
  endfacet
  facet normal -0 0 1
    outer loop
      vertex -18.74 158.9 2
      vertex -16.1051 155.57 2
      vertex 18.74 158.9 2
    endloop
  endfacet
  facet normal 0 0 1
    outer loop
      vertex -16.1051 155.57 2
      vertex -18.74 158.9 2
      vertex -16.4702 155.935 2
    endloop
  endfacet
  facet normal 0 0 1
    outer loop
      vertex -16.4702 155.935 2
      vertex -18.74 158.9 2
      vertex -16.9301 156.169 2
    endloop
  endfacet
  facet normal 0 0 1
    outer loop
      vertex -16.9301 156.169 2
      vertex -18.74 158.9 2
      vertex -17.44 156.25 2
    endloop
  endfacet
  facet normal 0 0 1
    outer loop
      vertex -18.74 158.9 2
      vertex -17.9499 156.169 2
      vertex -17.44 156.25 2
    endloop
  endfacet
  facet normal 0 0 1
    outer loop
      vertex -18.74 158.9 2
      vertex -18.4098 155.935 2
      vertex -17.9499 156.169 2
    endloop
  endfacet
  facet normal -0 0 1
    outer loop
      vertex -19.667 158.753 2
      vertex -18.4098 155.935 2
      vertex -18.74 158.9 2
    endloop
  endfacet
  facet normal -0 0 1
    outer loop
      vertex -20.5034 158.327 2
      vertex -18.4098 155.935 2
      vertex -19.667 158.753 2
    endloop
  endfacet
  facet normal 0 0 1
    outer loop
      vertex -18.4098 155.935 2
      vertex -20.5034 158.327 2
      vertex -18.7749 155.57 2
    endloop
  endfacet
  facet normal 0 0 1
    outer loop
      vertex -19.0092 155.11 2
      vertex -20.5034 158.327 2
      vertex -19.09 154.6 2
    endloop
  endfacet
  facet normal 0 0 1
    outer loop
      vertex -18.7749 155.57 2
      vertex -20.5034 158.327 2
      vertex -19.0092 155.11 2
    endloop
  endfacet
  facet normal 0 0 1
    outer loop
      vertex 21.5932 -4.42705 2
      vertex 18.7749 -3.16985 2
      vertex 21.167 -5.26336 2
    endloop
  endfacet
  facet normal 0 0 1
    outer loop
      vertex 21.167 -5.26336 2
      vertex 18.7749 -3.16985 2
      vertex 20.5034 -5.92705 2
    endloop
  endfacet
  facet normal -0 0 1
    outer loop
      vertex 18.4098 -3.53488 2
      vertex 20.5034 -5.92705 2
      vertex 18.7749 -3.16985 2
    endloop
  endfacet
  facet normal 0 0 1
    outer loop
      vertex 20.5034 -5.92705 2
      vertex 18.4098 -3.53488 2
      vertex 19.667 -6.35317 2
    endloop
  endfacet
  facet normal 0 0 1
    outer loop
      vertex 19.667 -6.35317 2
      vertex 18.4098 -3.53488 2
      vertex 18.74 -6.5 2
    endloop
  endfacet
  facet normal -0 0 1
    outer loop
      vertex 17.9499 -3.76924 2
      vertex 18.74 -6.5 2
      vertex 18.4098 -3.53488 2
    endloop
  endfacet
  facet normal -0 0 1
    outer loop
      vertex 17.44 -3.85 2
      vertex 18.74 -6.5 2
      vertex 17.9499 -3.76924 2
    endloop
  endfacet
  facet normal 0 0 1
    outer loop
      vertex 16.9301 -3.76924 2
      vertex 18.74 -6.5 2
      vertex 17.44 -3.85 2
    endloop
  endfacet
  facet normal 0 0 1
    outer loop
      vertex 16.4702 -3.53488 2
      vertex 18.74 -6.5 2
      vertex 16.9301 -3.76924 2
    endloop
  endfacet
  facet normal 0 0 1
    outer loop
      vertex 16.1051 -3.16985 2
      vertex 18.74 -6.5 2
      vertex 16.4702 -3.53488 2
    endloop
  endfacet
  facet normal 0 0 1
    outer loop
      vertex 15.8708 -1.69012 2
      vertex -15.79 -2.2 2
      vertex 15.79 -2.2 2
    endloop
  endfacet
  facet normal 0 0 1
    outer loop
      vertex 15.79 -2.2 2
      vertex -15.79 -2.2 2
      vertex 15.8708 -2.70988 2
    endloop
  endfacet
  facet normal 0 0 1
    outer loop
      vertex -15.8708 -2.70988 2
      vertex 15.8708 -2.70988 2
      vertex -15.79 -2.2 2
    endloop
  endfacet
  facet normal 0 0 1
    outer loop
      vertex 15.8708 -2.70988 2
      vertex -15.8708 -2.70988 2
      vertex 16.1051 -3.16985 2
    endloop
  endfacet
  facet normal 0 0 1
    outer loop
      vertex -16.1051 -3.16985 2
      vertex 16.1051 -3.16985 2
      vertex -15.8708 -2.70988 2
    endloop
  endfacet
  facet normal 0 0 1
    outer loop
      vertex 16.1051 -3.16985 2
      vertex -16.1051 -3.16985 2
      vertex 18.74 -6.5 2
    endloop
  endfacet
  facet normal 0 0 1
    outer loop
      vertex -18.74 -6.5 2
      vertex -16.1051 -3.16985 2
      vertex -16.4702 -3.53488 2
    endloop
  endfacet
  facet normal 0 0 1
    outer loop
      vertex -18.74 -6.5 2
      vertex -16.4702 -3.53488 2
      vertex -16.9301 -3.76924 2
    endloop
  endfacet
  facet normal 0 0 1
    outer loop
      vertex -18.74 -6.5 2
      vertex -16.9301 -3.76924 2
      vertex -17.44 -3.85 2
    endloop
  endfacet
  facet normal 0 0 1
    outer loop
      vertex -16.1051 -3.16985 2
      vertex -18.74 -6.5 2
      vertex 18.74 -6.5 2
    endloop
  endfacet
  facet normal 0 0 1
    outer loop
      vertex -17.9499 -3.76924 2
      vertex -18.74 -6.5 2
      vertex -17.44 -3.85 2
    endloop
  endfacet
  facet normal 0 0 1
    outer loop
      vertex -18.4098 -3.53488 2
      vertex -18.74 -6.5 2
      vertex -17.9499 -3.76924 2
    endloop
  endfacet
  facet normal 0 0 1
    outer loop
      vertex -20.5034 -5.92705 2
      vertex -18.4098 -3.53488 2
      vertex -18.7749 -3.16985 2
    endloop
  endfacet
  facet normal 0 0 1
    outer loop
      vertex -20.5034 -5.92705 2
      vertex -18.7749 -3.16985 2
      vertex -19.0092 -2.70988 2
    endloop
  endfacet
  facet normal 0 0 1
    outer loop
      vertex -20.5034 -5.92705 2
      vertex -19.0092 -2.70988 2
      vertex -19.09 -2.2 2
    endloop
  endfacet
  facet normal 0 0 1
    outer loop
      vertex -18.4098 -3.53488 2
      vertex -19.667 -6.35317 2
      vertex -18.74 -6.5 2
    endloop
  endfacet
  facet normal 0 0 1
    outer loop
      vertex -20.5034 -5.92705 2
      vertex -19.0092 -1.69012 2
      vertex -20.5034 158.327 2
    endloop
  endfacet
  facet normal 0 0 1
    outer loop
      vertex -19.0092 -1.69012 2
      vertex -20.5034 -5.92705 2
      vertex -19.09 -2.2 2
    endloop
  endfacet
  facet normal 0 0 1
    outer loop
      vertex -18.4098 -3.53488 2
      vertex -20.5034 -5.92705 2
      vertex -19.667 -6.35317 2
    endloop
  endfacet
  facet normal -1.11902e-006 1.77232e-007 1
    outer loop
      vertex -21.5932 156.827 2
      vertex -21.74 155.9 2
      vertex -20.5034 158.327 2
    endloop
  endfacet
  facet normal -0.45399 -0.891007 0
    outer loop
      vertex -20.5034 -5.92705 -0.0999994
      vertex -19.667 -6.35317 2
      vertex -20.5034 -5.92705 2
    endloop
  endfacet
  facet normal -0.45399 -0.891007 -0
    outer loop
      vertex -19.667 -6.35317 2
      vertex -20.5034 -5.92705 -0.0999994
      vertex -19.667 -6.35317 -0.0999994
    endloop
  endfacet
  facet normal -0.707107 -0.707106 0
    outer loop
      vertex -20.5034 -5.92705 -0.0999994
      vertex -21.167 -5.26336 2
      vertex -21.167 -5.26336 -0.0999994
    endloop
  endfacet
  facet normal -0.707107 -0.707106 0
    outer loop
      vertex -21.167 -5.26336 2
      vertex -20.5034 -5.92705 -0.0999994
      vertex -20.5034 -5.92705 2
    endloop
  endfacet
  facet normal 0.45399 0.891007 -0
    outer loop
      vertex 20.5034 158.327 -0.0999985
      vertex 19.667 158.753 2
      vertex 20.5034 158.327 2
    endloop
  endfacet
  facet normal 0.45399 0.891007 0
    outer loop
      vertex 19.667 158.753 2
      vertex 20.5034 158.327 -0.0999985
      vertex 19.667 158.753 -0.0999985
    endloop
  endfacet
  facet normal 2.50184e-008 4.91015e-008 -1
    outer loop
      vertex 20.5034 158.327 -0.0999985
      vertex -18.74 158.9 -0.0999994
      vertex 19.667 158.753 -0.0999985
    endloop
  endfacet
  facet normal 0.987689 0.156432 0
    outer loop
      vertex 21.74 155.9 2
      vertex 21.5932 156.827 -0.0999985
      vertex 21.5932 156.827 2
    endloop
  endfacet
  facet normal 0.987689 0.156432 0
    outer loop
      vertex 21.5932 156.827 -0.0999985
      vertex 21.74 155.9 2
      vertex 21.74 155.9 -0.0999985
    endloop
  endfacet
  facet normal 2.303e-008 3.64753e-009 -1
    outer loop
      vertex 17.8117 156.191 -0.0999986
      vertex 21.5932 156.827 -0.0999985
      vertex 21.74 155.9 -0.0999985
    endloop
  endfacet
  facet normal 3.2113e-008 -5.03634e-008 -1
    outer loop
      vertex 17.44 156.25 -0.0999986
      vertex 21.5932 156.827 -0.0999985
      vertex 17.8117 156.191 -0.0999986
    endloop
  endfacet
  facet normal 2.40419e-008 7.72512e-009 -1
    outer loop
      vertex 17.44 156.25 -0.0999986
      vertex -18.74 158.9 -0.0999994
      vertex 21.5932 156.827 -0.0999985
    endloop
  endfacet
  facet normal 1.60544e-008 -1.01327e-007 -1
    outer loop
      vertex -18.74 158.9 -0.0999994
      vertex 17.44 156.25 -0.0999986
      vertex 17.3053 156.229 -0.0999986
    endloop
  endfacet
  facet normal 2.303e-008 -3.64758e-009 -1
    outer loop
      vertex 21.5932 -4.42705 -0.0999985
      vertex 17.8117 -3.79113 -0.0999986
      vertex 21.74 -3.5 -0.0999985
    endloop
  endfacet
  facet normal 3.2113e-008 5.0364e-008 -1
    outer loop
      vertex 21.5932 -4.42705 -0.0999985
      vertex 17.44 -3.85 -0.0999986
      vertex 17.8117 -3.79113 -0.0999986
    endloop
  endfacet
  facet normal 1.60526e-008 1.01352e-007 -1
    outer loop
      vertex 17.44 -3.85 -0.0999986
      vertex -18.74 -6.5 -0.0999994
      vertex 17.3053 -3.82866 -0.0999986
    endloop
  endfacet
  facet normal 2.4042e-008 -7.72516e-009 -1
    outer loop
      vertex -18.74 -6.5 -0.0999994
      vertex 17.44 -3.85 -0.0999986
      vertex 21.5932 -4.42705 -0.0999985
    endloop
  endfacet
  facet normal 2.46616e-008 -2.46616e-008 -1
    outer loop
      vertex 20.5034 -5.92705 -0.0999985
      vertex -18.74 -6.5 -0.0999994
      vertex 21.167 -5.26336 -0.0999985
    endloop
  endfacet
  facet normal 0.156434 -0.987688 0
    outer loop
      vertex 18.74 -6.5 -0.0999985
      vertex 19.667 -6.35317 2
      vertex 18.74 -6.5 2
    endloop
  endfacet
  facet normal 0.156434 -0.987688 0
    outer loop
      vertex 19.667 -6.35317 2
      vertex 18.74 -6.5 -0.0999985
      vertex 19.667 -6.35317 -0.0999985
    endloop
  endfacet
  facet normal 2.54449e-008 -1.60653e-007 -1
    outer loop
      vertex 18.74 -6.5 -0.0999985
      vertex -18.74 -6.5 -0.0999994
      vertex 19.667 -6.35317 -0.0999985
    endloop
  endfacet
  facet normal 0.707106 -0.707107 0
    outer loop
      vertex 20.5034 -5.92705 -0.0999985
      vertex 21.167 -5.26336 2
      vertex 20.5034 -5.92705 2
    endloop
  endfacet
  facet normal 0.707106 -0.707107 0
    outer loop
      vertex 21.167 -5.26336 2
      vertex 20.5034 -5.92705 -0.0999985
      vertex 21.167 -5.26336 -0.0999985
    endloop
  endfacet
  facet normal -2.92968e-006 1.49275e-006 1
    outer loop
      vertex -21.167 157.663 2
      vertex -21.5932 156.827 2
      vertex -20.5034 158.327 2
    endloop
  endfacet
  facet normal -0.707108 0.707106 0
    outer loop
      vertex -21.167 157.663 -0.0999994
      vertex -20.5034 158.327 2
      vertex -20.5034 158.327 -0.0999994
    endloop
  endfacet
  facet normal -0.707108 0.707106 0
    outer loop
      vertex -20.5034 158.327 2
      vertex -21.167 157.663 -0.0999994
      vertex -21.167 157.663 2
    endloop
  endfacet
  facet normal -0.891006 -0.453992 0
    outer loop
      vertex -21.167 -5.26336 -0.0999994
      vertex -21.5932 -4.42705 2
      vertex -21.5932 -4.42705 -0.0999994
    endloop
  endfacet
  facet normal -0.891006 -0.453992 0
    outer loop
      vertex -21.5932 -4.42705 2
      vertex -21.167 -5.26336 -0.0999994
      vertex -21.167 -5.26336 2
    endloop
  endfacet
  facet normal -2.92967e-006 -1.49275e-006 1
    outer loop
      vertex -20.5034 -5.92705 2
      vertex -21.5932 -4.42705 2
      vertex -21.167 -5.26336 2
    endloop
  endfacet
  facet normal -1.11902e-006 -1.77235e-007 1
    outer loop
      vertex -20.5034 -5.92705 2
      vertex -21.74 -3.5 2
      vertex -21.5932 -4.42705 2
    endloop
  endfacet
  facet normal 0.891006 0.453991 0
    outer loop
      vertex 21.5932 156.827 2
      vertex 21.167 157.663 -0.0999985
      vertex 21.167 157.663 2
    endloop
  endfacet
  facet normal 0.891006 0.453991 0
    outer loop
      vertex 21.167 157.663 -0.0999985
      vertex 21.5932 156.827 2
      vertex 21.5932 156.827 -0.0999985
    endloop
  endfacet
  facet normal 2.42808e-008 1.23717e-008 -1
    outer loop
      vertex 21.5932 156.827 -0.0999985
      vertex -18.74 158.9 -0.0999994
      vertex 21.167 157.663 -0.0999985
    endloop
  endfacet
  facet normal 0.453991 -0.891006 0
    outer loop
      vertex 19.667 -6.35317 -0.0999985
      vertex 20.5034 -5.92705 2
      vertex 19.667 -6.35317 2
    endloop
  endfacet
  facet normal 0.453991 -0.891006 0
    outer loop
      vertex 20.5034 -5.92705 2
      vertex 19.667 -6.35317 -0.0999985
      vertex 20.5034 -5.92705 -0.0999985
    endloop
  endfacet
  facet normal -0.987689 -0.156433 0
    outer loop
      vertex -15.79 -2.2 -0.0999994
      vertex -15.8708 -1.69012 2
      vertex -15.8708 -1.69012 -0.0999994
    endloop
  endfacet
  facet normal -0.987689 -0.156433 0
    outer loop
      vertex -15.8708 -1.69012 2
      vertex -15.79 -2.2 -0.0999994
      vertex -15.79 -2.2 2
    endloop
  endfacet
  facet normal 0.987688 -0.156435 0
    outer loop
      vertex -19.09 -2.2 2
      vertex -19.0092 -1.69012 -0.0999994
      vertex -19.0092 -1.69012 2
    endloop
  endfacet
  facet normal 0.987688 -0.156435 0
    outer loop
      vertex -19.0092 -1.69012 -0.0999994
      vertex -19.09 -2.2 2
      vertex -19.09 -2.2 -0.0999994
    endloop
  endfacet
  facet normal -0.156436 -0.987688 0
    outer loop
      vertex -17.44 -0.549999 2
      vertex -16.9301 -0.630756 -0.0999994
      vertex -16.9301 -0.630756 2
    endloop
  endfacet
  facet normal -0.156436 -0.987688 0
    outer loop
      vertex -16.9301 -0.630756 -0.0999994
      vertex -17.44 -0.549999 2
      vertex -17.44 -0.549999 -0.0999994
    endloop
  endfacet
  facet normal -0.156434 0.987688 0
    outer loop
      vertex -16.9301 -3.76924 -0.0999994
      vertex -17.44 -3.85 2
      vertex -16.9301 -3.76924 2
    endloop
  endfacet
  facet normal -0.156434 0.987688 0
    outer loop
      vertex -17.44 -3.85 2
      vertex -16.9301 -3.76924 -0.0999994
      vertex -17.44 -3.85 -0.0999994
    endloop
  endfacet
  facet normal -0.45399 0.891007 0
    outer loop
      vertex -16.4702 -3.53488 -0.0999994
      vertex -16.9301 -3.76924 2
      vertex -16.4702 -3.53488 2
    endloop
  endfacet
  facet normal -0.45399 0.891007 0
    outer loop
      vertex -16.9301 -3.76924 2
      vertex -16.4702 -3.53488 -0.0999994
      vertex -16.9301 -3.76924 -0.0999994
    endloop
  endfacet
  facet normal -0.707107 -0.707107 0
    outer loop
      vertex -16.1051 -1.23015 -0.0999994
      vertex -16.4702 -0.865122 2
      vertex -16.4702 -0.865122 -0.0999994
    endloop
  endfacet
  facet normal -0.707107 -0.707107 0
    outer loop
      vertex -16.4702 -0.865122 2
      vertex -16.1051 -1.23015 -0.0999994
      vertex -16.1051 -1.23015 2
    endloop
  endfacet
  facet normal -0.891006 -0.453991 0
    outer loop
      vertex -15.8708 -1.69012 -0.0999994
      vertex -16.1051 -1.23015 2
      vertex -16.1051 -1.23015 -0.0999994
    endloop
  endfacet
  facet normal -0.891006 -0.453991 0
    outer loop
      vertex -16.1051 -1.23015 2
      vertex -15.8708 -1.69012 -0.0999994
      vertex -15.8708 -1.69012 2
    endloop
  endfacet
  facet normal -0.45399 -0.891007 0
    outer loop
      vertex -16.9301 -0.630756 2
      vertex -16.4702 -0.865122 -0.0999994
      vertex -16.4702 -0.865122 2
    endloop
  endfacet
  facet normal -0.45399 -0.891007 0
    outer loop
      vertex -16.4702 -0.865122 -0.0999994
      vertex -16.9301 -0.630756 2
      vertex -16.9301 -0.630756 -0.0999994
    endloop
  endfacet
  facet normal 0.707107 -0.707107 0
    outer loop
      vertex -18.4098 -0.865122 2
      vertex -18.74 -1.19528 -0.0999994
      vertex -18.4098 -0.865122 -0.0999994
    endloop
  endfacet
  facet normal 0.707107 -0.707107 0
    outer loop
      vertex -18.7749 -1.23015 2
      vertex -18.74 -1.19528 -0.0999994
      vertex -18.4098 -0.865122 2
    endloop
  endfacet
  facet normal 0.707107 -0.707107 0
    outer loop
      vertex -18.74 -1.19528 -0.0999994
      vertex -18.7749 -1.23015 2
      vertex -18.7749 -1.23015 -0.0999994
    endloop
  endfacet
  facet normal 0.891006 -0.453991 0
    outer loop
      vertex -19.0092 -1.69012 2
      vertex -18.7749 -1.23015 -0.0999994
      vertex -18.7749 -1.23015 2
    endloop
  endfacet
  facet normal 0.891006 -0.453991 0
    outer loop
      vertex -18.7749 -1.23015 -0.0999994
      vertex -19.0092 -1.69012 2
      vertex -19.0092 -1.69012 -0.0999994
    endloop
  endfacet
  facet normal 0.156435 -0.987688 0
    outer loop
      vertex -17.9499 -0.630756 2
      vertex -17.44 -0.549999 -0.0999994
      vertex -17.44 -0.549999 2
    endloop
  endfacet
  facet normal 0.156435 -0.987688 0
    outer loop
      vertex -17.44 -0.549999 -0.0999994
      vertex -17.9499 -0.630756 2
      vertex -17.9499 -0.630756 -0.0999994
    endloop
  endfacet
  facet normal 0.453992 -0.891006 0
    outer loop
      vertex -18.4098 -0.865122 2
      vertex -17.9499 -0.630756 -0.0999994
      vertex -17.9499 -0.630756 2
    endloop
  endfacet
  facet normal 0.453992 -0.891006 0
    outer loop
      vertex -17.9499 -0.630756 -0.0999994
      vertex -18.4098 -0.865122 2
      vertex -18.4098 -0.865122 -0.0999994
    endloop
  endfacet
  facet normal -0.987689 0.156433 0
    outer loop
      vertex -15.8708 -2.70988 -0.0999994
      vertex -15.79 -2.2 2
      vertex -15.79 -2.2 -0.0999994
    endloop
  endfacet
  facet normal -0.987689 0.156433 0
    outer loop
      vertex -15.79 -2.2 2
      vertex -15.8708 -2.70988 -0.0999994
      vertex -15.8708 -2.70988 2
    endloop
  endfacet
  facet normal -0.707107 0.707107 0
    outer loop
      vertex -16.4702 -3.53488 -0.0999994
      vertex -16.1051 -3.16985 2
      vertex -16.1051 -3.16985 -0.0999994
    endloop
  endfacet
  facet normal -0.707107 0.707107 0
    outer loop
      vertex -16.1051 -3.16985 2
      vertex -16.4702 -3.53488 -0.0999994
      vertex -16.4702 -3.53488 2
    endloop
  endfacet
  facet normal 0.891006 0.453991 0
    outer loop
      vertex -18.7749 -3.16985 2
      vertex -19.0092 -2.70988 -0.0999994
      vertex -19.0092 -2.70988 2
    endloop
  endfacet
  facet normal 0.891006 0.453991 0
    outer loop
      vertex -19.0092 -2.70988 -0.0999994
      vertex -18.7749 -3.16985 2
      vertex -18.7749 -3.16985 -0.0999994
    endloop
  endfacet
  facet normal 0.987688 0.156435 0
    outer loop
      vertex -19.0092 -2.70988 2
      vertex -19.09 -2.2 -0.0999994
      vertex -19.09 -2.2 2
    endloop
  endfacet
  facet normal 0.987688 0.156435 0
    outer loop
      vertex -19.09 -2.2 -0.0999994
      vertex -19.0092 -2.70988 2
      vertex -19.0092 -2.70988 -0.0999994
    endloop
  endfacet
  facet normal -0.891006 0.453991 0
    outer loop
      vertex -16.1051 -3.16985 -0.0999994
      vertex -15.8708 -2.70988 2
      vertex -15.8708 -2.70988 -0.0999994
    endloop
  endfacet
  facet normal -0.891006 0.453991 0
    outer loop
      vertex -15.8708 -2.70988 2
      vertex -16.1051 -3.16985 -0.0999994
      vertex -16.1051 -3.16985 2
    endloop
  endfacet
  facet normal 0.156433 0.987689 -0
    outer loop
      vertex -17.44 -3.85 -0.0999994
      vertex -17.9499 -3.76924 2
      vertex -17.44 -3.85 2
    endloop
  endfacet
  facet normal 0.156433 0.987689 0
    outer loop
      vertex -17.9499 -3.76924 2
      vertex -17.44 -3.85 -0.0999994
      vertex -17.9499 -3.76924 -0.0999994
    endloop
  endfacet
  facet normal 0.707107 0.707107 0
    outer loop
      vertex -18.7749 -3.16985 2
      vertex -18.74 -3.20472 -0.0999994
      vertex -18.7749 -3.16985 -0.0999994
    endloop
  endfacet
  facet normal 0.707107 0.707107 0
    outer loop
      vertex -18.4098 -3.53488 2
      vertex -18.74 -3.20472 -0.0999994
      vertex -18.7749 -3.16985 2
    endloop
  endfacet
  facet normal 0.707107 0.707107 0
    outer loop
      vertex -18.74 -3.20472 -0.0999994
      vertex -18.4098 -3.53488 2
      vertex -18.4098 -3.53488 -0.0999994
    endloop
  endfacet
  facet normal 0.453992 0.891006 -0
    outer loop
      vertex -17.9499 -3.76924 -0.0999994
      vertex -18.4098 -3.53488 2
      vertex -17.9499 -3.76924 2
    endloop
  endfacet
  facet normal 0.453992 0.891006 0
    outer loop
      vertex -18.4098 -3.53488 2
      vertex -17.9499 -3.76924 -0.0999994
      vertex -18.4098 -3.53488 -0.0999994
    endloop
  endfacet
  facet normal 0.156436 -0.987688 0
    outer loop
      vertex 16.9301 -0.630756 2
      vertex 17.44 -0.549999 -0.0999986
      vertex 17.44 -0.549999 2
    endloop
  endfacet
  facet normal 0.156436 -0.987688 0
    outer loop
      vertex 17.44 -0.549999 -0.0999986
      vertex 16.9301 -0.630756 2
      vertex 16.9301 -0.630756 -0.0999986
    endloop
  endfacet
  facet normal -0.987688 -0.156435 0
    outer loop
      vertex 19.09 -2.2 -0.0999985
      vertex 19.0092 -1.69012 2
      vertex 19.0092 -1.69012 -0.0999985
    endloop
  endfacet
  facet normal -0.987688 -0.156435 0
    outer loop
      vertex 19.0092 -1.69012 2
      vertex 19.09 -2.2 -0.0999985
      vertex 19.09 -2.2 2
    endloop
  endfacet
  facet normal 0.891006 -0.453991 0
    outer loop
      vertex 15.8708 -1.69012 2
      vertex 16.1051 -1.23015 -0.0999986
      vertex 16.1051 -1.23015 2
    endloop
  endfacet
  facet normal 0.891006 -0.453991 0
    outer loop
      vertex 16.1051 -1.23015 -0.0999986
      vertex 15.8708 -1.69012 2
      vertex 15.8708 -1.69012 -0.0999986
    endloop
  endfacet
  facet normal 0.45399 -0.891007 0
    outer loop
      vertex 16.4702 -0.865122 2
      vertex 16.9301 -0.630756 -0.0999986
      vertex 16.9301 -0.630756 2
    endloop
  endfacet
  facet normal 0.45399 -0.891007 0
    outer loop
      vertex 16.9301 -0.630756 -0.0999986
      vertex 16.4702 -0.865122 2
      vertex 16.4702 -0.865122 -0.0999986
    endloop
  endfacet
  facet normal 0.987689 -0.156433 0
    outer loop
      vertex 15.79 -2.2 2
      vertex 15.8708 -1.69012 -0.0999986
      vertex 15.8708 -1.69012 2
    endloop
  endfacet
  facet normal 0.987689 -0.156433 0
    outer loop
      vertex 15.8708 -1.69012 -0.0999986
      vertex 15.79 -2.2 2
      vertex 15.79 -2.2 -0.0999986
    endloop
  endfacet
  facet normal 0.45399 0.891007 -0
    outer loop
      vertex 16.9301 -3.76924 -0.0999986
      vertex 16.4702 -3.53488 2
      vertex 16.9301 -3.76924 2
    endloop
  endfacet
  facet normal 0.45399 0.891007 0
    outer loop
      vertex 16.4702 -3.53488 2
      vertex 16.9301 -3.76924 -0.0999986
      vertex 16.4702 -3.53488 -0.0999986
    endloop
  endfacet
  facet normal 0.156434 0.987688 0
    outer loop
      vertex 17.3053 -3.82866 -0.0999986
      vertex 17.44 -3.85 2
      vertex 17.44 -3.85 -0.0999986
    endloop
  endfacet
  facet normal 0.156434 0.987688 1.80148e-008
    outer loop
      vertex 17.44 -3.85 2
      vertex 17.3053 -3.82866 -0.0999986
      vertex 16.9301 -3.76924 2
    endloop
  endfacet
  facet normal 0.156434 0.987688 0
    outer loop
      vertex 16.9301 -3.76924 2
      vertex 17.3053 -3.82866 -0.0999986
      vertex 16.9301 -3.76924 -0.0999986
    endloop
  endfacet
  facet normal 0.891006 0.453991 0
    outer loop
      vertex 16.1051 -3.16985 2
      vertex 15.8708 -2.70988 -0.0999986
      vertex 15.8708 -2.70988 2
    endloop
  endfacet
  facet normal 0.891006 0.453991 0
    outer loop
      vertex 15.8708 -2.70988 -0.0999986
      vertex 16.1051 -3.16985 2
      vertex 16.1051 -3.16985 -0.0999986
    endloop
  endfacet
  facet normal -0.156435 -0.987688 0
    outer loop
      vertex 17.44 -0.549999 2
      vertex 17.9499 -0.630756 -0.0999986
      vertex 17.9499 -0.630756 2
    endloop
  endfacet
  facet normal -0.156435 -0.987688 0
    outer loop
      vertex 17.9499 -0.630756 -0.0999986
      vertex 17.44 -0.549999 2
      vertex 17.44 -0.549999 -0.0999986
    endloop
  endfacet
  facet normal -0.987688 0.156435 0
    outer loop
      vertex 19.0092 -2.70988 -0.0999985
      vertex 19.09 -2.2 2
      vertex 19.09 -2.2 -0.0999985
    endloop
  endfacet
  facet normal -0.987688 0.156435 0
    outer loop
      vertex 19.09 -2.2 2
      vertex 19.0092 -2.70988 -0.0999985
      vertex 19.0092 -2.70988 2
    endloop
  endfacet
  facet normal -0.453992 0.891006 0
    outer loop
      vertex 18.4098 -3.53488 -0.0999986
      vertex 17.9499 -3.76924 2
      vertex 18.4098 -3.53488 2
    endloop
  endfacet
  facet normal -0.453992 0.891006 0
    outer loop
      vertex 17.9499 -3.76924 2
      vertex 18.4098 -3.53488 -0.0999986
      vertex 17.9499 -3.76924 -0.0999986
    endloop
  endfacet
  facet normal 0.707107 -0.707107 0
    outer loop
      vertex 16.1051 -1.23015 2
      vertex 16.4702 -0.865122 -0.0999986
      vertex 16.4702 -0.865122 2
    endloop
  endfacet
  facet normal 0.707107 -0.707107 0
    outer loop
      vertex 16.4702 -0.865122 -0.0999986
      vertex 16.1051 -1.23015 2
      vertex 16.1051 -1.23015 -0.0999986
    endloop
  endfacet
  facet normal 0.987689 0.156433 0
    outer loop
      vertex 15.8708 -2.70988 2
      vertex 15.79 -2.2 -0.0999986
      vertex 15.79 -2.2 2
    endloop
  endfacet
  facet normal 0.987689 0.156433 0
    outer loop
      vertex 15.79 -2.2 -0.0999986
      vertex 15.8708 -2.70988 2
      vertex 15.8708 -2.70988 -0.0999986
    endloop
  endfacet
  facet normal -0.156432 0.987689 0
    outer loop
      vertex 17.8117 -3.79113 -0.0999986
      vertex 17.9499 -3.76924 2
      vertex 17.9499 -3.76924 -0.0999986
    endloop
  endfacet
  facet normal -0.156433 0.987689 3.95378e-008
    outer loop
      vertex 17.9499 -3.76924 2
      vertex 17.8117 -3.79113 -0.0999986
      vertex 17.44 -3.85 2
    endloop
  endfacet
  facet normal -0.156433 0.987689 0
    outer loop
      vertex 17.44 -3.85 2
      vertex 17.8117 -3.79113 -0.0999986
      vertex 17.44 -3.85 -0.0999986
    endloop
  endfacet
  facet normal 0.707107 0.707107 0
    outer loop
      vertex 16.4702 -3.53488 2
      vertex 16.1051 -3.16985 -0.0999986
      vertex 16.1051 -3.16985 2
    endloop
  endfacet
  facet normal 0.707107 0.707107 0
    outer loop
      vertex 16.1051 -3.16985 -0.0999986
      vertex 16.4702 -3.53488 2
      vertex 16.4702 -3.53488 -0.0999986
    endloop
  endfacet
  facet normal -0.453992 -0.891006 0
    outer loop
      vertex 17.9499 -0.630756 2
      vertex 18.4098 -0.865122 -0.0999986
      vertex 18.4098 -0.865122 2
    endloop
  endfacet
  facet normal -0.453992 -0.891006 0
    outer loop
      vertex 18.4098 -0.865122 -0.0999986
      vertex 17.9499 -0.630756 2
      vertex 17.9499 -0.630756 -0.0999986
    endloop
  endfacet
  facet normal -0.891006 -0.453991 0
    outer loop
      vertex 19.0092 -1.69012 -0.0999985
      vertex 18.7749 -1.23015 2
      vertex 18.7749 -1.23015 -0.0999985
    endloop
  endfacet
  facet normal -0.891006 -0.453991 0
    outer loop
      vertex 18.7749 -1.23015 2
      vertex 19.0092 -1.69012 -0.0999985
      vertex 19.0092 -1.69012 2
    endloop
  endfacet
  facet normal -0.707107 0.707107 0
    outer loop
      vertex 18.4098 -3.53488 -0.0999986
      vertex 18.7749 -3.16985 2
      vertex 18.7749 -3.16985 -0.0999985
    endloop
  endfacet
  facet normal -0.707107 0.707107 0
    outer loop
      vertex 18.7749 -3.16985 2
      vertex 18.4098 -3.53488 -0.0999986
      vertex 18.4098 -3.53488 2
    endloop
  endfacet
  facet normal -0.707107 -0.707107 0
    outer loop
      vertex 18.7749 -1.23015 -0.0999985
      vertex 18.4098 -0.865122 2
      vertex 18.4098 -0.865122 -0.0999986
    endloop
  endfacet
  facet normal -0.707107 -0.707107 0
    outer loop
      vertex 18.4098 -0.865122 2
      vertex 18.7749 -1.23015 -0.0999985
      vertex 18.7749 -1.23015 2
    endloop
  endfacet
  facet normal -0.891006 0.453991 0
    outer loop
      vertex 18.7749 -3.16985 -0.0999985
      vertex 19.0092 -2.70988 2
      vertex 19.0092 -2.70988 -0.0999985
    endloop
  endfacet
  facet normal -0.891006 0.453991 0
    outer loop
      vertex 19.0092 -2.70988 2
      vertex 18.7749 -3.16985 -0.0999985
      vertex 18.7749 -3.16985 2
    endloop
  endfacet
  facet normal 0.987689 0.156431 0
    outer loop
      vertex 15.8708 154.09 2
      vertex 15.79 154.6 -0.0999986
      vertex 15.79 154.6 2
    endloop
  endfacet
  facet normal 0.987689 0.156431 0
    outer loop
      vertex 15.79 154.6 -0.0999986
      vertex 15.8708 154.09 2
      vertex 15.8708 154.09 -0.0999986
    endloop
  endfacet
  facet normal -0.15642 -0.987691 1.25931e-006
    outer loop
      vertex 17.44 156.25 2
      vertex 17.8117 156.191 -0.0999986
      vertex 17.9499 156.169 2
    endloop
  endfacet
  facet normal -0.156427 -0.98769 0
    outer loop
      vertex 17.8117 156.191 -0.0999986
      vertex 17.44 156.25 2
      vertex 17.44 156.25 -0.0999986
    endloop
  endfacet
  facet normal -0.156402 -0.987694 -0
    outer loop
      vertex 17.9499 156.169 2
      vertex 17.8117 156.191 -0.0999986
      vertex 17.9499 156.169 -0.0999986
    endloop
  endfacet
  facet normal -0.891004 -0.453996 0
    outer loop
      vertex 19.0092 155.11 -0.0999985
      vertex 18.7749 155.57 2
      vertex 18.7749 155.57 -0.0999985
    endloop
  endfacet
  facet normal -0.891004 -0.453996 0
    outer loop
      vertex 18.7749 155.57 2
      vertex 19.0092 155.11 -0.0999985
      vertex 19.0092 155.11 2
    endloop
  endfacet
  facet normal 0.453981 0.891011 -0
    outer loop
      vertex 16.9301 153.031 -0.0999986
      vertex 16.4702 153.265 2
      vertex 16.9301 153.031 2
    endloop
  endfacet
  facet normal 0.453981 0.891011 0
    outer loop
      vertex 16.4702 153.265 2
      vertex 16.9301 153.031 -0.0999986
      vertex 16.4702 153.265 -0.0999986
    endloop
  endfacet
  facet normal 0.891004 0.453996 0
    outer loop
      vertex 16.1051 153.63 2
      vertex 15.8708 154.09 -0.0999986
      vertex 15.8708 154.09 2
    endloop
  endfacet
  facet normal 0.891004 0.453996 0
    outer loop
      vertex 15.8708 154.09 -0.0999986
      vertex 16.1051 153.63 2
      vertex 16.1051 153.63 -0.0999986
    endloop
  endfacet
  facet normal 0.15645 0.987686 -0
    outer loop
      vertex 17.44 152.95 -0.0999986
      vertex 16.9301 153.031 2
      vertex 17.44 152.95 2
    endloop
  endfacet
  facet normal 0.15645 0.987686 0
    outer loop
      vertex 16.9301 153.031 2
      vertex 17.44 152.95 -0.0999986
      vertex 16.9301 153.031 -0.0999986
    endloop
  endfacet
  facet normal -0.891004 0.453996 0
    outer loop
      vertex 18.7749 153.63 -0.0999985
      vertex 19.0092 154.09 2
      vertex 19.0092 154.09 -0.0999985
    endloop
  endfacet
  facet normal -0.891004 0.453996 0
    outer loop
      vertex 19.0092 154.09 2
      vertex 18.7749 153.63 -0.0999985
      vertex 18.7749 153.63 2
    endloop
  endfacet
  facet normal -0.453983 0.89101 0
    outer loop
      vertex 18.4098 153.265 -0.0999986
      vertex 17.9499 153.031 2
      vertex 18.4098 153.265 2
    endloop
  endfacet
  facet normal -0.453983 0.89101 0
    outer loop
      vertex 17.9499 153.031 2
      vertex 18.4098 153.265 -0.0999986
      vertex 17.9499 153.031 -0.0999986
    endloop
  endfacet
  facet normal 0.70711 -0.707103 0
    outer loop
      vertex 16.1051 155.57 2
      vertex 16.4702 155.935 -0.0999986
      vertex 16.4702 155.935 2
    endloop
  endfacet
  facet normal 0.70711 -0.707103 0
    outer loop
      vertex 16.4702 155.935 -0.0999986
      vertex 16.1051 155.57 2
      vertex 16.1051 155.57 -0.0999986
    endloop
  endfacet
  facet normal 0.156421 -0.98769 4.48825e-006
    outer loop
      vertex 16.9301 156.169 2
      vertex 17.3053 156.229 -0.0999986
      vertex 17.44 156.25 2
    endloop
  endfacet
  facet normal 0.156397 -0.987694 0
    outer loop
      vertex 17.3053 156.229 -0.0999986
      vertex 16.9301 156.169 2
      vertex 16.9301 156.169 -0.0999986
    endloop
  endfacet
  facet normal 0.15649 -0.98768 0
    outer loop
      vertex 17.44 156.25 2
      vertex 17.3053 156.229 -0.0999986
      vertex 17.44 156.25 -0.0999986
    endloop
  endfacet
  facet normal 0.891004 -0.453996 0
    outer loop
      vertex 15.8708 155.11 2
      vertex 16.1051 155.57 -0.0999986
      vertex 16.1051 155.57 2
    endloop
  endfacet
  facet normal 0.891004 -0.453996 0
    outer loop
      vertex 16.1051 155.57 -0.0999986
      vertex 15.8708 155.11 2
      vertex 15.8708 155.11 -0.0999986
    endloop
  endfacet
  facet normal -0.987688 -0.156437 0
    outer loop
      vertex 19.09 154.6 -0.0999985
      vertex 19.0092 155.11 2
      vertex 19.0092 155.11 -0.0999985
    endloop
  endfacet
  facet normal -0.987688 -0.156437 0
    outer loop
      vertex 19.0092 155.11 2
      vertex 19.09 154.6 -0.0999985
      vertex 19.09 154.6 2
    endloop
  endfacet
  facet normal 0.70711 0.707103 0
    outer loop
      vertex 16.4702 153.265 2
      vertex 16.1051 153.63 -0.0999986
      vertex 16.1051 153.63 2
    endloop
  endfacet
  facet normal 0.70711 0.707103 0
    outer loop
      vertex 16.1051 153.63 -0.0999986
      vertex 16.4702 153.265 2
      vertex 16.4702 153.265 -0.0999986
    endloop
  endfacet
  facet normal -0.156449 0.987686 0
    outer loop
      vertex 17.9499 153.031 -0.0999986
      vertex 17.44 152.95 2
      vertex 17.9499 153.031 2
    endloop
  endfacet
  facet normal -0.156449 0.987686 0
    outer loop
      vertex 17.44 152.95 2
      vertex 17.9499 153.031 -0.0999986
      vertex 17.44 152.95 -0.0999986
    endloop
  endfacet
  facet normal -0.987689 0.156432 0
    outer loop
      vertex 19.0092 154.09 -0.0999985
      vertex 19.09 154.6 2
      vertex 19.09 154.6 -0.0999985
    endloop
  endfacet
  facet normal -0.987689 0.156432 0
    outer loop
      vertex 19.09 154.6 2
      vertex 19.0092 154.09 -0.0999985
      vertex 19.0092 154.09 2
    endloop
  endfacet
  facet normal -0.70711 0.707103 0
    outer loop
      vertex 18.4098 153.265 -0.0999986
      vertex 18.7749 153.63 2
      vertex 18.7749 153.63 -0.0999985
    endloop
  endfacet
  facet normal -0.70711 0.707103 0
    outer loop
      vertex 18.7749 153.63 2
      vertex 18.4098 153.265 -0.0999986
      vertex 18.4098 153.265 2
    endloop
  endfacet
  facet normal 0.987688 -0.156435 0
    outer loop
      vertex 15.79 154.6 2
      vertex 15.8708 155.11 -0.0999986
      vertex 15.8708 155.11 2
    endloop
  endfacet
  facet normal 0.987688 -0.156435 0
    outer loop
      vertex 15.8708 155.11 -0.0999986
      vertex 15.79 154.6 2
      vertex 15.79 154.6 -0.0999986
    endloop
  endfacet
  facet normal 0.454005 -0.890999 0
    outer loop
      vertex 16.4702 155.935 2
      vertex 16.9301 156.169 -0.0999986
      vertex 16.9301 156.169 2
    endloop
  endfacet
  facet normal 0.454005 -0.890999 0
    outer loop
      vertex 16.9301 156.169 -0.0999986
      vertex 16.4702 155.935 2
      vertex 16.4702 155.935 -0.0999986
    endloop
  endfacet
  facet normal -0.70711 -0.707103 0
    outer loop
      vertex 18.7749 155.57 -0.0999985
      vertex 18.4098 155.935 2
      vertex 18.4098 155.935 -0.0999986
    endloop
  endfacet
  facet normal -0.70711 -0.707103 0
    outer loop
      vertex 18.4098 155.935 2
      vertex 18.7749 155.57 -0.0999985
      vertex 18.7749 155.57 2
    endloop
  endfacet
  facet normal -0.454006 -0.890998 0
    outer loop
      vertex 17.9499 156.169 2
      vertex 18.4098 155.935 -0.0999986
      vertex 18.4098 155.935 2
    endloop
  endfacet
  facet normal -0.454006 -0.890998 0
    outer loop
      vertex 18.4098 155.935 -0.0999986
      vertex 17.9499 156.169 2
      vertex 17.9499 156.169 -0.0999986
    endloop
  endfacet
  facet normal -0.15645 0.987686 0
    outer loop
      vertex -16.9301 153.031 -0.0999994
      vertex -17.44 152.95 2
      vertex -16.9301 153.031 2
    endloop
  endfacet
  facet normal -0.15645 0.987686 0
    outer loop
      vertex -17.44 152.95 2
      vertex -16.9301 153.031 -0.0999994
      vertex -17.44 152.95 -0.0999994
    endloop
  endfacet
  facet normal -0.156421 -0.98769 0
    outer loop
      vertex -17.44 156.25 2
      vertex -16.9301 156.169 -0.0999994
      vertex -16.9301 156.169 2
    endloop
  endfacet
  facet normal -0.156421 -0.98769 0
    outer loop
      vertex -16.9301 156.169 -0.0999994
      vertex -17.44 156.25 2
      vertex -17.44 156.25 -0.0999994
    endloop
  endfacet
  facet normal -0.987688 -0.156435 0
    outer loop
      vertex -15.79 154.6 -0.0999994
      vertex -15.8708 155.11 2
      vertex -15.8708 155.11 -0.0999994
    endloop
  endfacet
  facet normal -0.987688 -0.156435 0
    outer loop
      vertex -15.8708 155.11 2
      vertex -15.79 154.6 -0.0999994
      vertex -15.79 154.6 2
    endloop
  endfacet
  facet normal 0.987689 0.156432 0
    outer loop
      vertex -19.0092 154.09 2
      vertex -19.09 154.6 -0.0999994
      vertex -19.09 154.6 2
    endloop
  endfacet
  facet normal 0.987689 0.156432 0
    outer loop
      vertex -19.09 154.6 -0.0999994
      vertex -19.0092 154.09 2
      vertex -19.0092 154.09 -0.0999994
    endloop
  endfacet
  facet normal 0.891004 0.453996 0
    outer loop
      vertex -18.7749 153.63 2
      vertex -19.0092 154.09 -0.0999994
      vertex -19.0092 154.09 2
    endloop
  endfacet
  facet normal 0.891004 0.453996 0
    outer loop
      vertex -19.0092 154.09 -0.0999994
      vertex -18.7749 153.63 2
      vertex -18.7749 153.63 -0.0999994
    endloop
  endfacet
  facet normal -0.453981 0.891011 0
    outer loop
      vertex -16.4702 153.265 -0.0999994
      vertex -16.9301 153.031 2
      vertex -16.4702 153.265 2
    endloop
  endfacet
  facet normal -0.453981 0.891011 0
    outer loop
      vertex -16.9301 153.031 2
      vertex -16.4702 153.265 -0.0999994
      vertex -16.9301 153.031 -0.0999994
    endloop
  endfacet
  facet normal -0.987689 0.156431 0
    outer loop
      vertex -15.8708 154.09 -0.0999994
      vertex -15.79 154.6 2
      vertex -15.79 154.6 -0.0999994
    endloop
  endfacet
  facet normal -0.987689 0.156431 0
    outer loop
      vertex -15.79 154.6 2
      vertex -15.8708 154.09 -0.0999994
      vertex -15.8708 154.09 2
    endloop
  endfacet
  facet normal -0.70711 -0.707103 0
    outer loop
      vertex -16.1051 155.57 -0.0999994
      vertex -16.4702 155.935 2
      vertex -16.4702 155.935 -0.0999994
    endloop
  endfacet
  facet normal -0.70711 -0.707103 0
    outer loop
      vertex -16.4702 155.935 2
      vertex -16.1051 155.57 -0.0999994
      vertex -16.1051 155.57 2
    endloop
  endfacet
  facet normal -0.454005 -0.890999 0
    outer loop
      vertex -16.9301 156.169 2
      vertex -16.4702 155.935 -0.0999994
      vertex -16.4702 155.935 2
    endloop
  endfacet
  facet normal -0.454005 -0.890999 0
    outer loop
      vertex -16.4702 155.935 -0.0999994
      vertex -16.9301 156.169 2
      vertex -16.9301 156.169 -0.0999994
    endloop
  endfacet
  facet normal -0.891004 -0.453996 0
    outer loop
      vertex -15.8708 155.11 -0.0999994
      vertex -16.1051 155.57 2
      vertex -16.1051 155.57 -0.0999994
    endloop
  endfacet
  facet normal -0.891004 -0.453996 0
    outer loop
      vertex -16.1051 155.57 2
      vertex -15.8708 155.11 -0.0999994
      vertex -15.8708 155.11 2
    endloop
  endfacet
  facet normal 0.156449 0.987686 -0
    outer loop
      vertex -17.44 152.95 -0.0999994
      vertex -17.9499 153.031 2
      vertex -17.44 152.95 2
    endloop
  endfacet
  facet normal 0.156449 0.987686 0
    outer loop
      vertex -17.9499 153.031 2
      vertex -17.44 152.95 -0.0999994
      vertex -17.9499 153.031 -0.0999994
    endloop
  endfacet
  facet normal -0.70711 0.707103 0
    outer loop
      vertex -16.4702 153.265 -0.0999994
      vertex -16.1051 153.63 2
      vertex -16.1051 153.63 -0.0999994
    endloop
  endfacet
  facet normal -0.70711 0.707103 0
    outer loop
      vertex -16.1051 153.63 2
      vertex -16.4702 153.265 -0.0999994
      vertex -16.4702 153.265 2
    endloop
  endfacet
  facet normal -0.891004 0.453996 0
    outer loop
      vertex -16.1051 153.63 -0.0999994
      vertex -15.8708 154.09 2
      vertex -15.8708 154.09 -0.0999994
    endloop
  endfacet
  facet normal -0.891004 0.453996 0
    outer loop
      vertex -15.8708 154.09 2
      vertex -16.1051 153.63 -0.0999994
      vertex -16.1051 153.63 2
    endloop
  endfacet
  facet normal 0.707145 0.707068 0
    outer loop
      vertex -18.7749 153.63 2
      vertex -18.74 153.595 -0.0999994
      vertex -18.7749 153.63 -0.0999994
    endloop
  endfacet
  facet normal 0.70711 0.707103 -1.16174e-006
    outer loop
      vertex -18.4098 153.265 2
      vertex -18.74 153.595 -0.0999994
      vertex -18.7749 153.63 2
    endloop
  endfacet
  facet normal 0.707107 0.707107 0
    outer loop
      vertex -18.74 153.595 -0.0999994
      vertex -18.4098 153.265 2
      vertex -18.4098 153.265 -0.0999994
    endloop
  endfacet
  facet normal 0.891004 -0.453996 0
    outer loop
      vertex -19.0092 155.11 2
      vertex -18.7749 155.57 -0.0999994
      vertex -18.7749 155.57 2
    endloop
  endfacet
  facet normal 0.891004 -0.453996 0
    outer loop
      vertex -18.7749 155.57 -0.0999994
      vertex -19.0092 155.11 2
      vertex -19.0092 155.11 -0.0999994
    endloop
  endfacet
  facet normal 0.15642 -0.987691 0
    outer loop
      vertex -17.9499 156.169 2
      vertex -17.44 156.25 -0.0999994
      vertex -17.44 156.25 2
    endloop
  endfacet
  facet normal 0.15642 -0.987691 0
    outer loop
      vertex -17.44 156.25 -0.0999994
      vertex -17.9499 156.169 2
      vertex -17.9499 156.169 -0.0999994
    endloop
  endfacet
  facet normal 0.707107 -0.707107 0
    outer loop
      vertex -18.4098 155.935 2
      vertex -18.74 155.605 -0.0999994
      vertex -18.4098 155.935 -0.0999994
    endloop
  endfacet
  facet normal 0.70711 -0.707103 -1.16174e-006
    outer loop
      vertex -18.7749 155.57 2
      vertex -18.74 155.605 -0.0999994
      vertex -18.4098 155.935 2
    endloop
  endfacet
  facet normal 0.707145 -0.707068 0
    outer loop
      vertex -18.74 155.605 -0.0999994
      vertex -18.7749 155.57 2
      vertex -18.7749 155.57 -0.0999994
    endloop
  endfacet
  facet normal 0.453983 0.89101 -0
    outer loop
      vertex -17.9499 153.031 -0.0999994
      vertex -18.4098 153.265 2
      vertex -17.9499 153.031 2
    endloop
  endfacet
  facet normal 0.453983 0.89101 0
    outer loop
      vertex -18.4098 153.265 2
      vertex -17.9499 153.031 -0.0999994
      vertex -18.4098 153.265 -0.0999994
    endloop
  endfacet
  facet normal 0.987688 -0.156437 0
    outer loop
      vertex -19.09 154.6 2
      vertex -19.0092 155.11 -0.0999994
      vertex -19.0092 155.11 2
    endloop
  endfacet
  facet normal 0.987688 -0.156437 0
    outer loop
      vertex -19.0092 155.11 -0.0999994
      vertex -19.09 154.6 2
      vertex -19.09 154.6 -0.0999994
    endloop
  endfacet
  facet normal 0.454006 -0.890998 0
    outer loop
      vertex -18.4098 155.935 2
      vertex -17.9499 156.169 -0.0999994
      vertex -17.9499 156.169 2
    endloop
  endfacet
  facet normal 0.454006 -0.890998 0
    outer loop
      vertex -17.9499 156.169 -0.0999994
      vertex -18.4098 155.935 2
      vertex -18.4098 155.935 -0.0999994
    endloop
  endfacet
endsolid OpenSCAD_Model
